SplineFontDB: 3.2
FontName: Steven
FullName: Steven
FamilyName: Steven
Weight: Book
Copyright: Copyright (c) 2023, 1983
Version: 001.000
ItalicAngle: 0
UnderlinePosition: -100
UnderlineWidth: 50
Ascent: 800
Descent: 200
InvalidEm: 0
sfntRevision: 0x00010000
LayerCount: 2
Layer: 0 1 "Back" 1
Layer: 1 1 "Fore" 0
XUID: [1021 386 -327998391 13411186]
StyleMap: 0x0000
FSType: 0
OS2Version: 4
OS2_WeightWidthSlopeOnly: 0
OS2_UseTypoMetrics: 1
CreationTime: 1681889247
ModificationTime: 1702158671
PfmFamily: 17
TTFWeight: 400
TTFWidth: 5
LineGap: 90
VLineGap: 0
Panose: 2 0 5 3 0 0 0 0 0 0
OS2TypoAscent: 800
OS2TypoAOffset: 0
OS2TypoDescent: -200
OS2TypoDOffset: 0
OS2TypoLinegap: 90
OS2WinAscent: 834
OS2WinAOffset: 0
OS2WinDescent: 209
OS2WinDOffset: 0
HheadAscent: 834
HheadAOffset: 0
HheadDescent: -209
HheadDOffset: 0
OS2SubXSize: 650
OS2SubYSize: 699
OS2SubXOff: 0
OS2SubYOff: 140
OS2SupXSize: 650
OS2SupYSize: 699
OS2SupXOff: 0
OS2SupYOff: 479
OS2StrikeYSize: 49
OS2StrikeYPos: 258
OS2CapHeight: 666
OS2XHeight: 500
OS2Vendor: 'PfEd'
OS2CodePages: 00000001.00000000
OS2UnicodeRanges: 80000003.00000000.00000000.00000000
MarkAttachClasses: 1
DEI: 91125
ShortTable: cvt  2
  33
  633
EndShort
ShortTable: maxp 16
  1
  0
  98
  208
  5
  0
  0
  2
  0
  1
  1
  0
  64
  46
  0
  0
EndShort
LangName: 1033 "" "" "+AA0A" "ZiggyType : Steven : 19-4-2023" "" "Version 001.000"
GaspTable: 1 65535 2 0
Encoding: UnicodeBmp
UnicodeInterp: none
NameList: AGL For New Fonts
DisplaySize: -48
AntiAlias: 1
FitToEm: 0
WinInfo: 0 24 9
BeginChars: 65537 102

StartChar: .notdef
Encoding: 65536 -1 0
Width: 364
GlyphClass: 1
Flags: W
LayerCount: 2
Fore
SplineSet
33 0 m 1,0,-1
 33 666 l 1,1,-1
 298 666 l 1,2,-1
 298 0 l 1,3,-1
 33 0 l 1,0,-1
66 33 m 1,4,-1
 265 33 l 1,5,-1
 265 633 l 1,6,-1
 66 633 l 1,7,-1
 66 33 l 1,4,-1
EndSplineSet
Validated: 1
EndChar

StartChar: exclam
Encoding: 33 33 4
Width: 258
GlyphClass: 1
Flags: W
LayerCount: 2
Fore
SplineSet
167 167 m 1,0,1
 167 167 167 167 167 125 c 1,2,3
 167 125 167 125 208 125 c 1,4,5
 208 125 208 125 208 42 c 1,6,7
 208 42 208 42 167 42 c 1,8,9
 167 42 167 42 167 0 c 1,10,11
 167 0 167 0 42 0 c 1,12,13
 42 0 42 0 42 42 c 1,14,15
 42 42 42 42 0 42 c 1,16,17
 0 42 0 42 0 125 c 1,18,19
 0 125 0 125 42 125 c 1,20,21
 42 125 42 125 42 167 c 1,22,23
 42 167 42 167 167 167 c 1,0,1
0 250 m 1,24,25
 0 319 0 319 0 458 c 128,-1,26
 0 597 0 597 0 667 c 1,27,-1
 208 667 l 1,28,29
 208 667 208 667 208 250 c 1,30,31
 208 250 208 250 167 250 c 1,32,33
 167 250 167 250 167 208 c 1,34,35
 167 208 167 208 42 208 c 1,36,37
 42 208 42 208 42 250 c 1,38,39
 42 250 42 250 0 250 c 1,24,25
EndSplineSet
Validated: 1
EndChar

StartChar: quotedbl
Encoding: 34 34 5
Width: 425
GlyphClass: 1
Flags: W
LayerCount: 2
Fore
SplineSet
333 758 m 1,0,1
 340 758 340 758 354 758 c 128,-1,2
 368 758 368 758 375 758 c 1,3,-1
 375 550 l 1,4,5
 375 550 375 550 292 550 c 1,6,7
 292 550 292 550 292 633 c 1,8,9
 292 633 292 633 208 633 c 1,10,11
 208 633 208 633 208 758 c 1,12,13
 208 758 208 758 250 758 c 1,14,15
 250 758 250 758 250 800 c 1,16,17
 250 800 250 800 333 800 c 1,18,19
 333 800 333 800 333 758 c 1,0,1
125 800 m 1,20,21
 125 793 125 793 125 779 c 128,-1,22
 125 765 125 765 125 758 c 1,23,-1
 167 758 l 1,24,25
 167 758 167 758 167 550 c 1,26,27
 167 550 167 550 83 550 c 1,28,29
 83 550 83 550 83 633 c 1,30,31
 83 633 83 633 0 633 c 1,32,33
 0 633 0 633 0 758 c 1,34,35
 0 758 0 758 42 758 c 1,36,37
 42 758 42 758 42 800 c 1,38,39
 42 800 42 800 125 800 c 1,20,21
EndSplineSet
Validated: 1
EndChar

StartChar: dollar
Encoding: 36 36 7
Width: 508
GlyphClass: 1
Flags: W
LayerCount: 2
Fore
SplineSet
417 708 m 1,0,1
 417 701 417 701 417 687.5 c 128,-1,2
 417 674 417 674 417 667 c 1,3,-1
 458 667 l 1,4,5
 458 667 458 667 458 542 c 1,6,7
 458 542 458 542 292 542 c 1,8,9
 292 542 292 542 292 625 c 1,10,11
 292 625 292 625 208 625 c 1,12,13
 208 625 208 625 208 583 c 1,14,15
 208 583 208 583 167 583 c 1,16,17
 167 583 167 583 167 500 c 1,18,19
 167 500 167 500 208 500 c 1,20,21
 208 500 208 500 208 458 c 1,22,23
 208 458 208 458 375 458 c 1,24,25
 375 458 375 458 375 417 c 1,26,27
 375 417 375 417 417 417 c 1,28,29
 417 417 417 417 417 375 c 1,30,31
 417 375 417 375 458 375 c 1,32,33
 458 375 458 375 458 125 c 1,34,35
 458 125 458 125 417 125 c 1,36,37
 417 125 417 125 417 83 c 1,38,39
 417 83 417 83 375 83 c 1,40,41
 375 83 375 83 375 42 c 1,42,43
 375 42 375 42 292 42 c 1,44,45
 292 42 292 42 292 0 c 1,46,47
 292 0 292 0 167 0 c 1,48,49
 167 0 167 0 167 42 c 1,50,51
 167 42 167 42 42 42 c 1,52,53
 42 42 42 42 42 83 c 1,54,55
 42 83 42 83 0 83 c 1,56,57
 0 83 0 83 0 250 c 1,58,59
 0 250 0 250 167 250 c 1,60,61
 167 250 167 250 167 167 c 1,62,63
 167 167 167 167 250 167 c 1,64,65
 250 167 250 167 250 208 c 1,66,67
 250 208 250 208 292 208 c 1,68,69
 292 208 292 208 292 292 c 1,70,71
 292 292 292 292 250 292 c 1,72,73
 250 292 250 292 250 333 c 1,74,75
 250 333 250 333 83 333 c 1,76,77
 83 333 83 333 83 375 c 1,78,79
 83 375 83 375 42 375 c 1,80,81
 42 375 42 375 42 417 c 1,82,83
 42 417 42 417 0 417 c 1,84,85
 0 417 0 417 0 625 c 1,86,87
 0 625 0 625 42 625 c 1,88,89
 42 625 42 625 42 667 c 1,90,91
 42 667 42 667 83 667 c 1,92,93
 83 667 83 667 83 708 c 1,94,95
 83 708 83 708 167 708 c 1,96,97
 167 708 167 708 167 750 c 1,98,99
 167 750 167 750 292 750 c 1,100,101
 292 750 292 750 292 708 c 1,102,103
 292 708 292 708 417 708 c 1,0,1
EndSplineSet
Validated: 1
EndChar

StartChar: percent
Encoding: 37 37 8
Width: 758
GlyphClass: 1
Flags: W
LayerCount: 2
Fore
SplineSet
375 333 m 1,0,1
 375 333 375 333 375 292 c 1,2,3
 375 292 375 292 333 292 c 1,4,5
 333 292 333 292 333 250 c 1,6,7
 333 250 333 250 292 250 c 1,8,9
 292 250 292 250 292 208 c 1,10,11
 292 208 292 208 250 208 c 1,12,13
 250 208 250 208 250 167 c 1,14,15
 250 167 250 167 208 167 c 1,16,17
 208 167 208 167 208 125 c 1,18,19
 208 125 208 125 167 125 c 1,20,21
 167 125 167 125 167 83 c 1,22,23
 167 83 167 83 125 83 c 1,24,25
 125 83 125 83 125 42 c 1,26,27
 125 42 125 42 42 42 c 1,28,29
 42 42 42 42 42 83 c 1,30,31
 42 83 42 83 83 83 c 1,32,33
 83 83 83 83 83 125 c 1,34,35
 83 125 83 125 125 125 c 1,36,37
 125 125 125 125 125 167 c 1,38,39
 125 167 125 167 167 167 c 1,40,41
 167 167 167 167 167 208 c 1,42,43
 167 208 167 208 208 208 c 1,44,45
 208 208 208 208 208 250 c 1,46,47
 208 250 208 250 250 250 c 1,48,49
 250 250 250 250 250 292 c 1,50,51
 250 292 250 292 292 292 c 1,52,53
 292 292 292 292 292 333 c 1,54,55
 292 333 292 333 333 333 c 1,56,57
 333 333 333 333 333 375 c 1,58,59
 333 375 333 375 375 375 c 1,60,61
 375 375 375 375 375 417 c 1,62,63
 375 417 375 417 417 417 c 1,64,65
 417 417 417 417 417 458 c 1,66,67
 417 458 417 458 458 458 c 1,68,69
 458 458 458 458 458 500 c 1,70,71
 458 500 458 500 500 500 c 1,72,73
 500 500 500 500 500 542 c 1,74,75
 500 542 500 542 542 542 c 1,76,77
 542 542 542 542 542 583 c 1,78,79
 542 583 542 583 583 583 c 1,80,81
 583 583 583 583 583 625 c 1,82,83
 583 625 583 625 667 625 c 1,84,85
 667 625 667 625 667 583 c 1,86,87
 667 583 667 583 625 583 c 1,88,89
 625 583 625 583 625 542 c 1,90,91
 625 542 625 542 583 542 c 1,92,93
 583 542 583 542 583 500 c 1,94,95
 583 500 583 500 542 500 c 1,96,97
 542 500 542 500 542 458 c 1,98,99
 542 458 542 458 500 458 c 1,100,101
 500 458 500 458 500 417 c 1,102,103
 500 417 500 417 458 417 c 1,104,105
 458 417 458 417 458 375 c 1,106,107
 458 375 458 375 417 375 c 1,108,109
 417 375 417 375 417 333 c 1,110,111
 417 333 417 333 375 333 c 1,0,1
583 83 m 1,112,113
 583 83 583 83 583 250 c 1,114,115
 583 250 583 250 500 250 c 1,116,117
 500 250 500 250 500 83 c 1,118,119
 500 83 500 83 583 83 c 1,112,113
667 250 m 1,120,121
 667 250 667 250 708 250 c 1,122,123
 708 250 708 250 708 83 c 1,124,125
 708 83 708 83 667 83 c 1,126,127
 667 83 667 83 667 42 c 1,128,129
 667 42 667 42 625 42 c 1,130,131
 625 42 625 42 625 0 c 1,132,133
 625 0 625 0 458 0 c 1,134,135
 458 0 458 0 458 42 c 1,136,137
 458 42 458 42 417 42 c 1,138,139
 417 42 417 42 417 83 c 1,140,141
 417 83 417 83 375 83 c 1,142,143
 375 83 375 83 375 250 c 1,144,145
 375 250 375 250 417 250 c 1,146,147
 417 250 417 250 417 292 c 1,148,149
 417 292 417 292 458 292 c 1,150,151
 458 292 458 292 458 333 c 1,152,153
 458 333 458 333 625 333 c 1,154,155
 625 333 625 333 625 292 c 1,156,157
 625 292 625 292 667 292 c 1,158,159
 667 292 667 292 667 250 c 1,120,121
208 417 m 1,160,161
 208 417 208 417 208 583 c 1,162,163
 208 583 208 583 125 583 c 1,164,165
 125 583 125 583 125 417 c 1,166,167
 125 417 125 417 208 417 c 1,160,161
292 583 m 1,168,169
 292 583 292 583 333 583 c 1,170,171
 333 583 333 583 333 417 c 1,172,173
 333 417 333 417 292 417 c 1,174,175
 292 417 292 417 292 375 c 1,176,177
 292 375 292 375 250 375 c 1,178,179
 250 375 250 375 250 333 c 1,180,181
 250 333 250 333 83 333 c 1,182,183
 83 333 83 333 83 375 c 1,184,185
 83 375 83 375 42 375 c 1,186,187
 42 375 42 375 42 417 c 1,188,189
 42 417 42 417 0 417 c 1,190,191
 0 417 0 417 0 583 c 1,192,193
 0 583 0 583 42 583 c 1,194,195
 42 583 42 583 42 625 c 1,196,197
 42 625 42 625 83 625 c 1,198,199
 83 625 83 625 83 667 c 1,200,201
 83 667 83 667 250 667 c 1,202,203
 250 667 250 667 250 625 c 1,204,205
 250 625 250 625 292 625 c 1,206,207
 292 625 292 625 292 583 c 1,168,169
EndSplineSet
Validated: 1
EndChar

StartChar: ampersand
Encoding: 38 38 9
Width: 550
GlyphClass: 1
Flags: W
LayerCount: 2
Fore
SplineSet
292 125 m 1,0,1
 292 125 292 125 292 292 c 1,2,3
 292 292 292 292 208 292 c 1,4,5
 208 292 208 292 208 250 c 1,6,7
 208 250 208 250 167 250 c 1,8,9
 167 250 167 250 167 167 c 1,10,11
 167 167 167 167 208 167 c 1,12,13
 208 167 208 167 208 125 c 1,14,15
 208 125 208 125 292 125 c 1,0,1
458 417 m 1,16,17
 465 417 465 417 479 417 c 128,-1,18
 493 417 493 417 500 417 c 1,19,-1
 500 292 l 1,20,21
 500 292 500 292 458 292 c 1,22,23
 458 292 458 292 458 83 c 1,24,25
 458 83 458 83 417 83 c 1,26,27
 417 83 417 83 417 0 c 1,28,29
 417 0 417 0 83 0 c 1,30,31
 83 0 83 0 83 42 c 1,32,33
 83 42 83 42 42 42 c 1,34,35
 42 42 42 42 42 83 c 1,36,37
 42 83 42 83 0 83 c 1,38,39
 0 83 0 83 0 333 c 1,40,41
 0 333 0 333 42 333 c 1,42,43
 42 333 42 333 42 375 c 1,44,45
 42 375 42 375 83 375 c 1,46,47
 83 375 83 375 83 417 c 1,48,49
 83 417 83 417 42 417 c 1,50,51
 42 417 42 417 42 583 c 1,52,53
 42 583 42 583 83 583 c 1,54,55
 83 583 83 583 83 625 c 1,56,57
 83 625 83 625 125 625 c 1,58,59
 125 625 125 625 125 667 c 1,60,61
 125 667 125 667 375 667 c 1,62,63
 375 667 375 667 375 542 c 1,64,65
 375 542 375 542 208 542 c 1,66,67
 208 542 208 542 208 417 c 1,68,69
 208 417 208 417 292 417 c 1,70,71
 292 417 292 417 292 458 c 1,72,73
 292 458 292 458 458 458 c 1,74,75
 458 458 458 458 458 417 c 1,16,17
EndSplineSet
Validated: 1
EndChar

StartChar: quotesingle
Encoding: 39 39 10
Width: 217
GlyphClass: 1
Flags: W
LayerCount: 2
Fore
SplineSet
125 800 m 1,0,1
 125 793 125 793 125 779 c 128,-1,2
 125 765 125 765 125 758 c 1,3,-1
 167 758 l 1,4,5
 167 758 167 758 167 550 c 1,6,7
 167 550 167 550 83 550 c 1,8,9
 83 550 83 550 83 633 c 1,10,11
 83 633 83 633 0 633 c 1,12,13
 0 633 0 633 0 758 c 1,14,15
 0 758 0 758 42 758 c 1,16,17
 42 758 42 758 42 800 c 1,18,19
 42 800 42 800 125 800 c 1,0,1
EndSplineSet
Validated: 1
EndChar

StartChar: comma
Encoding: 44 44 15
Width: 217
GlyphClass: 1
Flags: W
LayerCount: 2
Fore
SplineSet
125 167 m 1,0,1
 125 160 125 160 125 146 c 128,-1,2
 125 132 125 132 125 125 c 1,3,-1
 167 125 l 1,4,5
 167 125 167 125 167 -83 c 1,6,7
 167 -83 167 -83 83 -83 c 1,8,9
 83 -83 83 -83 83 0 c 1,10,11
 83 0 83 0 0 0 c 1,12,13
 0 0 0 0 0 125 c 1,14,15
 0 125 0 125 42 125 c 1,16,17
 42 125 42 125 42 167 c 1,18,19
 42 167 42 167 125 167 c 1,0,1
EndSplineSet
Validated: 1
EndChar

StartChar: hyphen
Encoding: 45 45 16
Width: 254
GlyphClass: 1
Flags: WO
LayerCount: 2
Fore
SplineSet
-155 339 m 1,0,-1
 427 338 l 1,1,-1
 428 215 l 1,2,-1
 -156 216 l 1,3,-1
 -155 339 l 1,0,-1
EndSplineSet
EndChar

StartChar: period
Encoding: 46 46 17
Width: 217
GlyphClass: 1
Flags: W
LayerCount: 2
Fore
SplineSet
125 167 m 1,0,1
 125 167 125 167 125 125 c 1,2,3
 125 125 125 125 167 125 c 1,4,5
 167 125 167 125 167 42 c 1,6,7
 167 42 167 42 125 42 c 1,8,9
 125 42 125 42 125 0 c 1,10,11
 125 0 125 0 42 0 c 1,12,13
 42 0 42 0 42 42 c 1,14,15
 42 42 42 42 0 42 c 1,16,17
 0 42 0 42 0 125 c 1,18,19
 0 125 0 125 42 125 c 1,20,21
 42 125 42 125 42 167 c 1,22,23
 42 167 42 167 125 167 c 1,0,1
EndSplineSet
Validated: 1
EndChar

StartChar: zero
Encoding: 48 48 19
Width: 508
GlyphClass: 1
Flags: W
LayerCount: 2
Fore
SplineSet
292 125 m 1,0,1
 292 125 292 125 292 542 c 1,2,3
 292 542 292 542 250 542 c 1,4,5
 250 542 250 542 250 583 c 1,6,7
 250 583 250 583 208 583 c 1,8,9
 208 583 208 583 208 542 c 1,10,11
 208 542 208 542 167 542 c 1,12,13
 167 542 167 542 167 125 c 1,14,15
 167 125 167 125 208 125 c 1,16,17
 208 125 208 125 208 83 c 1,18,19
 208 83 208 83 250 83 c 1,20,21
 250 83 250 83 250 125 c 1,22,23
 250 125 250 125 292 125 c 1,0,1
417 583 m 1,24,25
 417 583 417 583 458 583 c 1,26,27
 458 583 458 583 458 83 c 1,28,29
 458 83 458 83 417 83 c 1,30,31
 417 83 417 83 417 42 c 1,32,33
 417 42 417 42 375 42 c 1,34,35
 375 42 375 42 375 0 c 1,36,37
 375 0 375 0 83 0 c 1,38,39
 83 0 83 0 83 42 c 1,40,41
 83 42 83 42 42 42 c 1,42,43
 42 42 42 42 42 83 c 1,44,45
 42 83 42 83 0 83 c 1,46,47
 0 83 0 83 0 583 c 1,48,49
 0 583 0 583 42 583 c 1,50,51
 42 583 42 583 42 625 c 1,52,53
 42 625 42 625 83 625 c 1,54,55
 83 625 83 625 83 667 c 1,56,57
 83 667 83 667 375 667 c 1,58,59
 375 667 375 667 375 625 c 1,60,61
 375 625 375 625 417 625 c 1,62,63
 417 625 417 625 417 583 c 1,24,25
EndSplineSet
Validated: 1
EndChar

StartChar: one
Encoding: 49 49 20
Width: 342
GlyphClass: 1
Flags: W
LayerCount: 2
Fore
SplineSet
125 625 m 1,0,1
 125 632 125 632 125 646 c 128,-1,2
 125 660 125 660 125 667 c 1,3,-1
 292 667 l 1,4,5
 292 667 292 667 292 0 c 1,6,7
 292 0 292 0 125 0 c 1,8,9
 125 0 125 0 125 500 c 1,10,11
 125 500 125 500 0 500 c 1,12,13
 0 500 0 500 0 583 c 1,14,15
 0 583 0 583 83 583 c 1,16,17
 83 583 83 583 83 625 c 1,18,19
 83 625 83 625 125 625 c 1,0,1
EndSplineSet
Validated: 1
EndChar

StartChar: two
Encoding: 50 50 21
Width: 508
GlyphClass: 1
Flags: W
LayerCount: 2
Fore
SplineSet
417 625 m 1,0,1
 417 618 417 618 417 604 c 128,-1,2
 417 590 417 590 417 583 c 1,3,-1
 458 583 l 1,4,5
 458 583 458 583 458 333 c 1,6,7
 458 333 458 333 417 333 c 1,8,9
 417 333 417 333 417 292 c 1,10,11
 417 292 417 292 375 292 c 1,12,13
 375 292 375 292 375 250 c 1,14,15
 375 250 375 250 208 250 c 1,16,17
 208 250 208 250 208 208 c 1,18,19
 208 208 208 208 167 208 c 1,20,21
 167 208 167 208 167 125 c 1,22,23
 167 125 167 125 292 125 c 1,24,25
 292 125 292 125 292 208 c 1,26,27
 292 208 292 208 458 208 c 1,28,29
 458 208 458 208 458 42 c 1,30,31
 458 42 458 42 417 42 c 1,32,33
 417 42 417 42 417 0 c 1,34,35
 417 0 417 0 0 0 c 1,36,37
 0 0 0 0 0 292 c 1,38,39
 0 292 0 292 42 292 c 1,40,41
 42 292 42 292 42 333 c 1,42,43
 42 333 42 333 83 333 c 1,44,45
 83 333 83 333 83 375 c 1,46,47
 83 375 83 375 250 375 c 1,48,49
 250 375 250 375 250 417 c 1,50,51
 250 417 250 417 292 417 c 1,52,53
 292 417 292 417 292 542 c 1,54,55
 292 542 292 542 250 542 c 1,56,57
 250 542 250 542 250 583 c 1,58,59
 250 583 250 583 167 583 c 1,60,61
 167 583 167 583 167 500 c 1,62,63
 167 500 167 500 0 500 c 1,64,65
 0 500 0 500 0 625 c 1,66,67
 0 625 0 625 42 625 c 1,68,69
 42 625 42 625 42 667 c 1,70,71
 42 667 42 667 375 667 c 1,72,73
 375 667 375 667 375 625 c 1,74,75
 375 625 375 625 417 625 c 1,0,1
EndSplineSet
Validated: 1
EndChar

StartChar: three
Encoding: 51 51 22
Width: 508
GlyphClass: 1
Flags: W
LayerCount: 2
Fore
SplineSet
417 625 m 1,0,1
 417 625 417 625 417 583 c 1,2,3
 417 583 417 583 458 583 c 1,4,5
 458 583 458 583 458 458 c 1,6,7
 458 458 458 458 417 458 c 1,8,9
 417 458 417 458 417 417 c 1,10,11
 417 417 417 417 375 417 c 1,12,13
 375 417 375 417 375 375 c 1,14,15
 375 375 375 375 417 375 c 1,16,17
 417 375 417 375 417 333 c 1,18,19
 417 333 417 333 458 333 c 1,20,21
 458 333 458 333 458 83 c 1,22,23
 458 83 458 83 417 83 c 1,24,25
 417 83 417 83 417 42 c 1,26,27
 417 42 417 42 375 42 c 1,28,29
 375 42 375 42 375 0 c 1,30,31
 375 0 375 0 42 0 c 1,32,33
 42 0 42 0 42 42 c 1,34,35
 42 42 42 42 0 42 c 1,36,37
 0 42 0 42 0 208 c 1,38,39
 0 208 0 208 167 208 c 1,40,41
 167 208 167 208 167 125 c 1,42,43
 167 125 167 125 250 125 c 1,44,45
 250 125 250 125 250 167 c 1,46,47
 250 167 250 167 292 167 c 1,48,49
 292 167 292 167 292 292 c 1,50,51
 292 292 292 292 250 292 c 1,52,53
 250 292 250 292 250 333 c 1,54,55
 250 333 250 333 167 333 c 1,56,57
 167 333 167 333 167 417 c 1,58,59
 167 417 167 417 250 417 c 1,60,61
 250 417 250 417 250 458 c 1,62,63
 250 458 250 458 292 458 c 1,64,65
 292 458 292 458 292 542 c 1,66,67
 292 542 292 542 250 542 c 1,68,69
 250 542 250 542 250 583 c 1,70,71
 250 583 250 583 167 583 c 1,72,73
 167 583 167 583 167 542 c 1,74,75
 167 542 167 542 0 542 c 1,76,77
 0 542 0 542 0 625 c 1,78,79
 0 625 0 625 42 625 c 1,80,81
 42 625 42 625 42 667 c 1,82,83
 42 667 42 667 375 667 c 1,84,85
 375 667 375 667 375 625 c 1,86,87
 375 625 375 625 417 625 c 1,0,1
EndSplineSet
Validated: 1
EndChar

StartChar: four
Encoding: 52 52 23
Width: 592
GlyphClass: 1
Flags: W
LayerCount: 2
Fore
SplineSet
292 292 m 1,0,1
 292 292 292 292 292 458 c 1,2,3
 292 458 292 458 250 458 c 1,4,5
 250 458 250 458 250 417 c 1,6,7
 250 417 250 417 208 417 c 1,8,9
 208 417 208 417 208 375 c 1,10,11
 208 375 208 375 167 375 c 1,12,13
 167 375 167 375 167 333 c 1,14,15
 167 333 167 333 125 333 c 1,16,17
 125 333 125 333 125 292 c 1,18,19
 125 292 125 292 292 292 c 1,0,1
458 292 m 1,20,21
 472 292 472 292 500 292 c 128,-1,22
 528 292 528 292 542 292 c 1,23,-1
 542 167 l 1,24,25
 542 167 542 167 458 167 c 1,26,27
 458 167 458 167 458 0 c 1,28,29
 458 0 458 0 292 0 c 1,30,31
 292 0 292 0 292 167 c 1,32,33
 292 167 292 167 0 167 c 1,34,35
 0 167 0 167 0 333 c 1,36,37
 0 333 0 333 42 333 c 1,38,39
 42 333 42 333 42 375 c 1,40,41
 42 375 42 375 83 375 c 1,42,43
 83 375 83 375 83 417 c 1,44,45
 83 417 83 417 125 417 c 1,46,47
 125 417 125 417 125 458 c 1,48,49
 125 458 125 458 167 458 c 1,50,51
 167 458 167 458 167 500 c 1,52,53
 167 500 167 500 208 500 c 1,54,55
 208 500 208 500 208 542 c 1,56,57
 208 542 208 542 250 542 c 1,58,59
 250 542 250 542 250 583 c 1,60,61
 250 583 250 583 292 583 c 1,62,63
 292 583 292 583 292 625 c 1,64,65
 292 625 292 625 333 625 c 1,66,67
 333 625 333 625 333 667 c 1,68,69
 333 667 333 667 458 667 c 1,70,71
 458 667 458 667 458 292 c 1,20,21
EndSplineSet
Validated: 1
EndChar

StartChar: five
Encoding: 53 53 24
Width: 508
GlyphClass: 1
Flags: W
LayerCount: 2
Fore
SplineSet
0 375 m 1,0,1
 0 424 0 424 0 521 c 128,-1,2
 0 618 0 618 0 667 c 1,3,-1
 458 667 l 1,4,5
 458 667 458 667 458 542 c 1,6,7
 458 542 458 542 167 542 c 1,8,9
 167 542 167 542 167 458 c 1,10,11
 167 458 167 458 375 458 c 1,12,13
 375 458 375 458 375 417 c 1,14,15
 375 417 375 417 417 417 c 1,16,17
 417 417 417 417 417 375 c 1,18,19
 417 375 417 375 458 375 c 1,20,21
 458 375 458 375 458 83 c 1,22,23
 458 83 458 83 417 83 c 1,24,25
 417 83 417 83 417 42 c 1,26,27
 417 42 417 42 375 42 c 1,28,29
 375 42 375 42 375 0 c 1,30,31
 375 0 375 0 42 0 c 1,32,33
 42 0 42 0 42 42 c 1,34,35
 42 42 42 42 0 42 c 1,36,37
 0 42 0 42 0 208 c 1,38,39
 0 208 0 208 167 208 c 1,40,41
 167 208 167 208 167 125 c 1,42,43
 167 125 167 125 250 125 c 1,44,45
 250 125 250 125 250 167 c 1,46,47
 250 167 250 167 292 167 c 1,48,49
 292 167 292 167 292 292 c 1,50,51
 292 292 292 292 250 292 c 1,52,53
 250 292 250 292 250 333 c 1,54,55
 250 333 250 333 208 333 c 1,56,57
 208 333 208 333 208 292 c 1,58,59
 208 292 208 292 83 292 c 1,60,61
 83 292 83 292 83 333 c 1,62,63
 83 333 83 333 42 333 c 1,64,65
 42 333 42 333 42 375 c 1,66,67
 42 375 42 375 0 375 c 1,0,1
EndSplineSet
Validated: 1
EndChar

StartChar: six
Encoding: 54 54 25
Width: 508
GlyphClass: 1
Flags: W
LayerCount: 2
Fore
SplineSet
292 167 m 1,0,1
 292 194 292 194 292 250 c 128,-1,2
 292 306 292 306 292 333 c 1,3,-1
 208 333 l 1,4,5
 208 333 208 333 208 292 c 1,6,7
 208 292 208 292 167 292 c 1,8,9
 167 292 167 292 167 167 c 1,10,11
 167 167 167 167 208 167 c 1,12,13
 208 167 208 167 208 125 c 1,14,15
 208 125 208 125 250 125 c 1,16,17
 250 125 250 125 250 167 c 1,18,19
 250 167 250 167 292 167 c 1,0,1
417 375 m 1,20,21
 424 375 424 375 437.5 375 c 128,-1,22
 451 375 451 375 458 375 c 1,23,-1
 458 83 l 1,24,25
 458 83 458 83 417 83 c 1,26,27
 417 83 417 83 417 42 c 1,28,29
 417 42 417 42 375 42 c 1,30,31
 375 42 375 42 375 0 c 1,32,33
 375 0 375 0 83 0 c 1,34,35
 83 0 83 0 83 42 c 1,36,37
 83 42 83 42 42 42 c 1,38,39
 42 42 42 42 42 83 c 1,40,41
 42 83 42 83 0 83 c 1,42,43
 0 83 0 83 0 500 c 1,44,45
 0 500 0 500 42 500 c 1,46,47
 42 500 42 500 42 542 c 1,48,49
 42 542 42 542 83 542 c 1,50,51
 83 542 83 542 83 583 c 1,52,53
 83 583 83 583 125 583 c 1,54,55
 125 583 125 583 125 625 c 1,56,57
 125 625 125 625 167 625 c 1,58,59
 167 625 167 625 167 667 c 1,60,61
 167 667 167 667 417 667 c 1,62,63
 417 667 417 667 417 583 c 1,64,65
 417 583 417 583 292 583 c 1,66,67
 292 583 292 583 292 542 c 1,68,69
 292 542 292 542 250 542 c 1,70,71
 250 542 250 542 250 500 c 1,72,73
 250 500 250 500 208 500 c 1,74,75
 208 500 208 500 208 458 c 1,76,77
 208 458 208 458 167 458 c 1,78,79
 167 458 167 458 167 417 c 1,80,81
 167 417 167 417 417 417 c 1,82,83
 417 417 417 417 417 375 c 1,20,21
EndSplineSet
Validated: 1
EndChar

StartChar: seven
Encoding: 55 55 26
Width: 550
GlyphClass: 1
Flags: W
LayerCount: 2
Fore
SplineSet
458 667 m 1,0,1
 458 660 458 660 458 646 c 128,-1,2
 458 632 458 632 458 625 c 1,3,-1
 500 625 l 1,4,5
 500 625 500 625 500 417 c 1,6,7
 500 417 500 417 458 417 c 1,8,9
 458 417 458 417 458 375 c 1,10,11
 458 375 458 375 417 375 c 1,12,13
 417 375 417 375 417 333 c 1,14,15
 417 333 417 333 375 333 c 1,16,17
 375 333 375 333 375 292 c 1,18,19
 375 292 375 292 333 292 c 1,20,21
 333 292 333 292 333 250 c 1,22,23
 333 250 333 250 292 250 c 1,24,25
 292 250 292 250 292 0 c 1,26,27
 292 0 292 0 125 0 c 1,28,29
 125 0 125 0 125 292 c 1,30,31
 125 292 125 292 167 292 c 1,32,33
 167 292 167 292 167 333 c 1,34,35
 167 333 167 333 208 333 c 1,36,37
 208 333 208 333 208 375 c 1,38,39
 208 375 208 375 250 375 c 1,40,41
 250 375 250 375 250 417 c 1,42,43
 250 417 250 417 292 417 c 1,44,45
 292 417 292 417 292 458 c 1,46,47
 292 458 292 458 333 458 c 1,48,49
 333 458 333 458 333 542 c 1,50,51
 333 542 333 542 167 542 c 1,52,53
 167 542 167 542 167 500 c 1,54,55
 167 500 167 500 0 500 c 1,56,57
 0 500 0 500 0 625 c 1,58,59
 0 625 0 625 42 625 c 1,60,61
 42 625 42 625 42 667 c 1,62,63
 42 667 42 667 458 667 c 1,0,1
EndSplineSet
Validated: 1
EndChar

StartChar: eight
Encoding: 56 56 27
Width: 550
GlyphClass: 1
Flags: W
LayerCount: 2
Fore
SplineSet
333 458 m 1,0,1
 333 458 333 458 333 542 c 1,2,3
 333 542 333 542 292 542 c 1,4,5
 292 542 292 542 292 583 c 1,6,7
 292 583 292 583 208 583 c 1,8,9
 208 583 208 583 208 542 c 1,10,11
 208 542 208 542 167 542 c 1,12,13
 167 542 167 542 167 458 c 1,14,15
 167 458 167 458 208 458 c 1,16,17
 208 458 208 458 208 417 c 1,18,19
 208 417 208 417 292 417 c 1,20,21
 292 417 292 417 292 458 c 1,22,23
 292 458 292 458 333 458 c 1,0,1
333 167 m 1,24,25
 333 167 333 167 333 292 c 1,26,27
 333 292 333 292 292 292 c 1,28,29
 292 292 292 292 292 333 c 1,30,31
 292 333 292 333 208 333 c 1,32,33
 208 333 208 333 208 292 c 1,34,35
 208 292 208 292 167 292 c 1,36,37
 167 292 167 292 167 167 c 1,38,39
 167 167 167 167 208 167 c 1,40,41
 208 167 208 167 208 125 c 1,42,43
 208 125 208 125 292 125 c 1,44,45
 292 125 292 125 292 167 c 1,46,47
 292 167 292 167 333 167 c 1,24,25
458 417 m 1,48,49
 451 417 451 417 437.5 417 c 128,-1,50
 424 417 424 417 417 417 c 1,51,-1
 417 375 l 1,52,53
 417 375 417 375 458 375 c 1,54,55
 458 375 458 375 458 333 c 1,56,57
 458 333 458 333 500 333 c 1,58,59
 500 333 500 333 500 83 c 1,60,61
 500 83 500 83 458 83 c 1,62,63
 458 83 458 83 458 42 c 1,64,65
 458 42 458 42 417 42 c 1,66,67
 417 42 417 42 417 0 c 1,68,69
 417 0 417 0 83 0 c 1,70,71
 83 0 83 0 83 42 c 1,72,73
 83 42 83 42 42 42 c 1,74,75
 42 42 42 42 42 83 c 1,76,77
 42 83 42 83 0 83 c 1,78,79
 0 83 0 83 0 333 c 1,80,81
 0 333 0 333 42 333 c 1,82,83
 42 333 42 333 42 375 c 1,84,85
 42 375 42 375 83 375 c 1,86,87
 83 375 83 375 83 417 c 1,88,89
 83 417 83 417 42 417 c 1,90,91
 42 417 42 417 42 458 c 1,92,93
 42 458 42 458 0 458 c 1,94,95
 0 458 0 458 0 583 c 1,96,97
 0 583 0 583 42 583 c 1,98,99
 42 583 42 583 42 625 c 1,100,101
 42 625 42 625 83 625 c 1,102,103
 83 625 83 625 83 667 c 1,104,105
 83 667 83 667 417 667 c 1,106,107
 417 667 417 667 417 625 c 1,108,109
 417 625 417 625 458 625 c 1,110,111
 458 625 458 625 458 583 c 1,112,113
 458 583 458 583 500 583 c 1,114,115
 500 583 500 583 500 458 c 1,116,117
 500 458 500 458 458 458 c 1,118,119
 458 458 458 458 458 417 c 1,48,49
EndSplineSet
Validated: 1
EndChar

StartChar: nine
Encoding: 57 57 28
Width: 508
GlyphClass: 1
Flags: W
LayerCount: 2
Fore
SplineSet
292 417 m 1,0,1
 292 437 292 437 292 479 c 128,-1,2
 292 521 292 521 292 542 c 1,3,-1
 250 542 l 1,4,5
 250 542 250 542 250 583 c 1,6,7
 250 583 250 583 208 583 c 1,8,9
 208 583 208 583 208 542 c 1,10,11
 208 542 208 542 167 542 c 1,12,13
 167 542 167 542 167 375 c 1,14,15
 167 375 167 375 250 375 c 1,16,17
 250 375 250 375 250 417 c 1,18,19
 250 417 250 417 292 417 c 1,0,1
417 583 m 1,20,21
 417 583 417 583 458 583 c 1,22,23
 458 583 458 583 458 167 c 1,24,25
 458 167 458 167 417 167 c 1,26,27
 417 167 417 167 417 125 c 1,28,29
 417 125 417 125 375 125 c 1,30,31
 375 125 375 125 375 83 c 1,32,33
 375 83 375 83 333 83 c 1,34,35
 333 83 333 83 333 42 c 1,36,37
 333 42 333 42 292 42 c 1,38,39
 292 42 292 42 292 0 c 1,40,41
 292 0 292 0 42 0 c 1,42,43
 42 0 42 0 42 125 c 1,44,45
 42 125 42 125 208 125 c 1,46,47
 208 125 208 125 208 167 c 1,48,49
 208 167 208 167 250 167 c 1,50,51
 250 167 250 167 250 208 c 1,52,53
 250 208 250 208 292 208 c 1,54,55
 292 208 292 208 292 250 c 1,56,57
 292 250 292 250 42 250 c 1,58,59
 42 250 42 250 42 292 c 1,60,61
 42 292 42 292 0 292 c 1,62,63
 0 292 0 292 0 583 c 1,64,65
 0 583 0 583 42 583 c 1,66,67
 42 583 42 583 42 625 c 1,68,69
 42 625 42 625 83 625 c 1,70,71
 83 625 83 625 83 667 c 1,72,73
 83 667 83 667 375 667 c 1,74,75
 375 667 375 667 375 625 c 1,76,77
 375 625 375 625 417 625 c 1,78,79
 417 625 417 625 417 583 c 1,20,21
EndSplineSet
Validated: 1
EndChar

StartChar: colon
Encoding: 58 58 29
Width: 217
GlyphClass: 1
Flags: W
LayerCount: 2
Fore
SplineSet
125 167 m 1,0,1
 125 167 125 167 125 125 c 1,2,3
 125 125 125 125 167 125 c 1,4,5
 167 125 167 125 167 42 c 1,6,7
 167 42 167 42 125 42 c 1,8,9
 125 42 125 42 125 0 c 1,10,11
 125 0 125 0 42 0 c 1,12,13
 42 0 42 0 42 42 c 1,14,15
 42 42 42 42 0 42 c 1,16,17
 0 42 0 42 0 125 c 1,18,19
 0 125 0 125 42 125 c 1,20,21
 42 125 42 125 42 167 c 1,22,23
 42 167 42 167 125 167 c 1,0,1
125 417 m 1,24,25
 125 417 125 417 125 375 c 1,26,27
 125 375 125 375 167 375 c 1,28,29
 167 375 167 375 167 292 c 1,30,31
 167 292 167 292 125 292 c 1,32,33
 125 292 125 292 125 250 c 1,34,35
 125 250 125 250 42 250 c 1,36,37
 42 250 42 250 42 292 c 1,38,39
 42 292 42 292 0 292 c 1,40,41
 0 292 0 292 0 375 c 1,42,43
 0 375 0 375 42 375 c 1,44,45
 42 375 42 375 42 417 c 1,46,47
 42 417 42 417 125 417 c 1,24,25
EndSplineSet
Validated: 1
EndChar

StartChar: semicolon
Encoding: 59 59 30
Width: 217
GlyphClass: 1
Flags: W
LayerCount: 2
Fore
SplineSet
125 167 m 1,0,1
 125 160 125 160 125 146 c 128,-1,2
 125 132 125 132 125 125 c 1,3,-1
 167 125 l 1,4,5
 167 125 167 125 167 -83 c 1,6,7
 167 -83 167 -83 83 -83 c 1,8,9
 83 -83 83 -83 83 0 c 1,10,11
 83 0 83 0 0 0 c 1,12,13
 0 0 0 0 0 125 c 1,14,15
 0 125 0 125 42 125 c 1,16,17
 42 125 42 125 42 167 c 1,18,19
 42 167 42 167 125 167 c 1,0,1
125 417 m 1,20,21
 125 417 125 417 125 375 c 1,22,23
 125 375 125 375 167 375 c 1,24,25
 167 375 167 375 167 292 c 1,26,27
 167 292 167 292 125 292 c 1,28,29
 125 292 125 292 125 250 c 1,30,31
 125 250 125 250 42 250 c 1,32,33
 42 250 42 250 42 292 c 1,34,35
 42 292 42 292 0 292 c 1,36,37
 0 292 0 292 0 375 c 1,38,39
 0 375 0 375 42 375 c 1,40,41
 42 375 42 375 42 417 c 1,42,43
 42 417 42 417 125 417 c 1,20,21
EndSplineSet
Validated: 1
EndChar

StartChar: question
Encoding: 63 63 34
Width: 508
GlyphClass: 1
Flags: W
LayerCount: 2
Fore
SplineSet
292 167 m 1,0,1
 292 167 292 167 292 125 c 1,2,3
 292 125 292 125 333 125 c 1,4,5
 333 125 333 125 333 42 c 1,6,7
 333 42 333 42 292 42 c 1,8,9
 292 42 292 42 292 0 c 1,10,11
 292 0 292 0 167 0 c 1,12,13
 167 0 167 0 167 42 c 1,14,15
 167 42 167 42 125 42 c 1,16,17
 125 42 125 42 125 125 c 1,18,19
 125 125 125 125 167 125 c 1,20,21
 167 125 167 125 167 167 c 1,22,23
 167 167 167 167 292 167 c 1,0,1
417 625 m 1,24,25
 417 618 417 618 417 604 c 128,-1,26
 417 590 417 590 417 583 c 1,27,-1
 458 583 l 1,28,29
 458 583 458 583 458 417 c 1,30,31
 458 417 458 417 417 417 c 1,32,33
 417 417 417 417 417 375 c 1,34,35
 417 375 417 375 375 375 c 1,36,37
 375 375 375 375 375 333 c 1,38,39
 375 333 375 333 333 333 c 1,40,41
 333 333 333 333 333 250 c 1,42,43
 333 250 333 250 292 250 c 1,44,45
 292 250 292 250 292 208 c 1,46,47
 292 208 292 208 167 208 c 1,48,49
 167 208 167 208 167 250 c 1,50,51
 167 250 167 250 125 250 c 1,52,53
 125 250 125 250 125 375 c 1,54,55
 125 375 125 375 167 375 c 1,56,57
 167 375 167 375 167 417 c 1,58,59
 167 417 167 417 208 417 c 1,60,61
 208 417 208 417 208 458 c 1,62,63
 208 458 208 458 250 458 c 1,64,65
 250 458 250 458 250 542 c 1,66,67
 250 542 250 542 167 542 c 1,68,69
 167 542 167 542 167 500 c 1,70,71
 167 500 167 500 0 500 c 1,72,73
 0 500 0 500 0 625 c 1,74,75
 0 625 0 625 42 625 c 1,76,77
 42 625 42 625 42 667 c 1,78,79
 42 667 42 667 375 667 c 1,80,81
 375 667 375 667 375 625 c 1,82,83
 375 625 375 625 417 625 c 1,24,25
EndSplineSet
Validated: 1
EndChar

StartChar: A
Encoding: 65 65 36
Width: 633
GlyphClass: 1
Flags: W
LayerCount: 2
Fore
SplineSet
375 333 m 1,0,1
 375 368 375 368 375 437.5 c 128,-1,2
 375 507 375 507 375 542 c 1,3,-1
 333 542 l 1,4,5
 333 542 333 542 333 500 c 1,6,7
 333 500 333 500 292 500 c 1,8,9
 292 500 292 500 292 458 c 1,10,11
 292 458 292 458 250 458 c 1,12,13
 250 458 250 458 250 333 c 1,14,15
 250 333 250 333 375 333 c 1,0,1
542 625 m 1,16,17
 549 625 549 625 562.5 625 c 128,-1,18
 576 625 576 625 583 625 c 1,19,-1
 583 0 l 1,20,21
 583 0 583 0 375 0 c 1,22,23
 375 0 375 0 375 208 c 1,24,25
 375 208 375 208 250 208 c 1,26,27
 250 208 250 208 250 0 c 1,28,29
 250 0 250 0 0 0 c 1,30,31
 0 0 0 0 0 125 c 1,32,33
 0 125 0 125 42 125 c 1,34,35
 42 125 42 125 42 458 c 1,36,37
 42 458 42 458 83 458 c 1,38,39
 83 458 83 458 83 500 c 1,40,41
 83 500 83 500 125 500 c 1,42,43
 125 500 125 500 125 542 c 1,44,45
 125 542 125 542 167 542 c 1,46,47
 167 542 167 542 167 583 c 1,48,49
 167 583 167 583 208 583 c 1,50,51
 208 583 208 583 208 625 c 1,52,53
 208 625 208 625 250 625 c 1,54,55
 250 625 250 625 250 667 c 1,56,57
 250 667 250 667 542 667 c 1,58,59
 542 667 542 667 542 625 c 1,16,17
EndSplineSet
Validated: 1
EndChar

StartChar: B
Encoding: 66 66 37
Width: 633
GlyphClass: 1
Flags: W
LayerCount: 2
Fore
SplineSet
375 458 m 1,0,1
 375 458 375 458 375 500 c 1,2,3
 375 500 375 500 333 500 c 1,4,5
 333 500 333 500 333 542 c 1,6,7
 333 542 333 542 250 542 c 1,8,9
 250 542 250 542 250 417 c 1,10,11
 250 417 250 417 333 417 c 1,12,13
 333 417 333 417 333 458 c 1,14,15
 333 458 333 458 375 458 c 1,0,1
375 167 m 1,16,17
 375 167 375 167 375 292 c 1,18,19
 375 292 375 292 333 292 c 1,20,21
 333 292 333 292 333 333 c 1,22,23
 333 333 333 333 250 333 c 1,24,25
 250 333 250 333 250 125 c 1,26,27
 250 125 250 125 333 125 c 1,28,29
 333 125 333 125 333 167 c 1,30,31
 333 167 333 167 375 167 c 1,16,17
542 333 m 1,32,33
 549 333 549 333 562.5 333 c 128,-1,34
 576 333 576 333 583 333 c 1,35,-1
 583 83 l 1,36,37
 583 83 583 83 542 83 c 1,38,39
 542 83 542 83 542 42 c 1,40,41
 542 42 542 42 500 42 c 1,42,43
 500 42 500 42 500 0 c 1,44,45
 500 0 500 0 42 0 c 1,46,47
 42 0 42 0 42 542 c 1,48,49
 42 542 42 542 0 542 c 1,50,51
 0 542 0 542 0 667 c 1,52,53
 0 667 0 667 458 667 c 1,54,55
 458 667 458 667 458 625 c 1,56,57
 458 625 458 625 500 625 c 1,58,59
 500 625 500 625 500 583 c 1,60,61
 500 583 500 583 542 583 c 1,62,63
 542 583 542 583 542 417 c 1,64,65
 542 417 542 417 500 417 c 1,66,67
 500 417 500 417 500 375 c 1,68,69
 500 375 500 375 542 375 c 1,70,71
 542 375 542 375 542 333 c 1,32,33
EndSplineSet
Validated: 1
EndChar

StartChar: C
Encoding: 67 67 38
Width: 550
GlyphClass: 1
Flags: W
LayerCount: 2
Fore
SplineSet
83 42 m 1,0,1
 76 42 76 42 62.5 42 c 128,-1,2
 49 42 49 42 42 42 c 1,3,-1
 42 83 l 1,4,5
 42 83 42 83 0 83 c 1,6,7
 0 83 0 83 0 542 c 1,8,9
 0 542 0 542 42 542 c 1,10,11
 42 542 42 542 42 583 c 1,12,13
 42 583 42 583 83 583 c 1,14,15
 83 583 83 583 83 625 c 1,16,17
 83 625 83 625 125 625 c 1,18,19
 125 625 125 625 125 667 c 1,20,21
 125 667 125 667 458 667 c 1,22,23
 458 667 458 667 458 625 c 1,24,25
 458 625 458 625 500 625 c 1,26,27
 500 625 500 625 500 500 c 1,28,29
 500 500 500 500 333 500 c 1,30,31
 333 500 333 500 333 542 c 1,32,33
 333 542 333 542 250 542 c 1,34,35
 250 542 250 542 250 500 c 1,36,37
 250 500 250 500 208 500 c 1,38,39
 208 500 208 500 208 125 c 1,40,41
 208 125 208 125 292 125 c 1,42,43
 292 125 292 125 292 167 c 1,44,45
 292 167 292 167 333 167 c 1,46,47
 333 167 333 167 333 208 c 1,48,49
 333 208 333 208 500 208 c 1,50,51
 500 208 500 208 500 42 c 1,52,53
 500 42 500 42 458 42 c 1,54,55
 458 42 458 42 458 0 c 1,56,57
 458 0 458 0 83 0 c 1,58,59
 83 0 83 0 83 42 c 1,0,1
EndSplineSet
Validated: 1
EndChar

StartChar: D
Encoding: 68 68 39
Width: 633
GlyphClass: 1
Flags: W
LayerCount: 2
Fore
SplineSet
375 167 m 1,0,1
 375 167 375 167 375 500 c 1,2,3
 375 500 375 500 333 500 c 1,4,5
 333 500 333 500 333 542 c 1,6,7
 333 542 333 542 250 542 c 1,8,9
 250 542 250 542 250 125 c 1,10,11
 250 125 250 125 333 125 c 1,12,13
 333 125 333 125 333 167 c 1,14,15
 333 167 333 167 375 167 c 1,0,1
542 542 m 1,16,17
 549 542 549 542 562.5 542 c 128,-1,18
 576 542 576 542 583 542 c 1,19,-1
 583 125 l 1,20,21
 583 125 583 125 542 125 c 1,22,23
 542 125 542 125 542 83 c 1,24,25
 542 83 542 83 500 83 c 1,26,27
 500 83 500 83 500 42 c 1,28,29
 500 42 500 42 458 42 c 1,30,31
 458 42 458 42 458 0 c 1,32,33
 458 0 458 0 42 0 c 1,34,35
 42 0 42 0 42 542 c 1,36,37
 42 542 42 542 0 542 c 1,38,39
 0 542 0 542 0 667 c 1,40,41
 0 667 0 667 458 667 c 1,42,43
 458 667 458 667 458 625 c 1,44,45
 458 625 458 625 500 625 c 1,46,47
 500 625 500 625 500 583 c 1,48,49
 500 583 500 583 542 583 c 1,50,51
 542 583 542 583 542 542 c 1,16,17
EndSplineSet
Validated: 1
EndChar

StartChar: E
Encoding: 69 69 40
Width: 592
GlyphClass: 1
Flags: W
LayerCount: 2
Fore
SplineSet
42 0 m 1,0,1
 42 90 42 90 42 270.5 c 128,-1,2
 42 451 42 451 42 542 c 1,3,-1
 0 542 l 1,4,5
 0 542 0 542 0 667 c 1,6,7
 0 667 0 667 458 667 c 1,8,9
 458 667 458 667 458 625 c 1,10,11
 458 625 458 625 500 625 c 1,12,13
 500 625 500 625 500 500 c 1,14,15
 500 500 500 500 333 500 c 1,16,17
 333 500 333 500 333 542 c 1,18,19
 333 542 333 542 250 542 c 1,20,21
 250 542 250 542 250 417 c 1,22,23
 250 417 250 417 417 417 c 1,24,25
 417 417 417 417 417 292 c 1,26,27
 417 292 417 292 250 292 c 1,28,29
 250 292 250 292 250 125 c 1,30,31
 250 125 250 125 375 125 c 1,32,33
 375 125 375 125 375 208 c 1,34,35
 375 208 375 208 542 208 c 1,36,37
 542 208 542 208 542 42 c 1,38,39
 542 42 542 42 500 42 c 1,40,41
 500 42 500 42 500 0 c 1,42,43
 500 0 500 0 42 0 c 1,0,1
EndSplineSet
Validated: 1
EndChar

StartChar: F
Encoding: 70 70 41
Width: 550
GlyphClass: 1
Flags: W
LayerCount: 2
Fore
SplineSet
500 500 m 1,0,1
 472 500 472 500 416.5 500 c 128,-1,2
 361 500 361 500 333 500 c 1,3,-1
 333 542 l 1,4,5
 333 542 333 542 250 542 c 1,6,7
 250 542 250 542 250 417 c 1,8,9
 250 417 250 417 417 417 c 1,10,11
 417 417 417 417 417 292 c 1,12,13
 417 292 417 292 250 292 c 1,14,15
 250 292 250 292 250 0 c 1,16,17
 250 0 250 0 42 0 c 1,18,19
 42 0 42 0 42 542 c 1,20,21
 42 542 42 542 0 542 c 1,22,23
 0 542 0 542 0 667 c 1,24,25
 0 667 0 667 458 667 c 1,26,27
 458 667 458 667 458 625 c 1,28,29
 458 625 458 625 500 625 c 1,30,31
 500 625 500 625 500 500 c 1,0,1
EndSplineSet
Validated: 1
EndChar

StartChar: G
Encoding: 71 71 42
Width: 592
GlyphClass: 1
Flags: W
LayerCount: 2
Fore
SplineSet
542 0 m 1,0,1
 521 0 521 0 479 0 c 128,-1,2
 437 0 437 0 417 0 c 1,3,-1
 417 42 l 1,4,5
 417 42 417 42 375 42 c 1,6,7
 375 42 375 42 375 0 c 1,8,9
 375 0 375 0 125 0 c 1,10,11
 125 0 125 0 125 42 c 1,12,13
 125 42 125 42 83 42 c 1,14,15
 83 42 83 42 83 83 c 1,16,17
 83 83 83 83 0 83 c 1,18,19
 0 83 0 83 0 542 c 1,20,21
 0 542 0 542 42 542 c 1,22,23
 42 542 42 542 42 583 c 1,24,25
 42 583 42 583 83 583 c 1,26,27
 83 583 83 583 83 625 c 1,28,29
 83 625 83 625 125 625 c 1,30,31
 125 625 125 625 125 667 c 1,32,33
 125 667 125 667 458 667 c 1,34,35
 458 667 458 667 458 625 c 1,36,37
 458 625 458 625 500 625 c 1,38,39
 500 625 500 625 500 500 c 1,40,41
 500 500 500 500 333 500 c 1,42,43
 333 500 333 500 333 542 c 1,44,45
 333 542 333 542 250 542 c 1,46,47
 250 542 250 542 250 500 c 1,48,49
 250 500 250 500 208 500 c 1,50,51
 208 500 208 500 208 125 c 1,52,53
 208 125 208 125 292 125 c 1,54,55
 292 125 292 125 292 167 c 1,56,57
 292 167 292 167 333 167 c 1,58,59
 333 167 333 167 333 292 c 1,60,61
 333 292 333 292 250 292 c 1,62,63
 250 292 250 292 250 417 c 1,64,65
 250 417 250 417 542 417 c 1,66,67
 542 417 542 417 542 0 c 1,0,1
EndSplineSet
Validated: 1
EndChar

StartChar: H
Encoding: 72 72 43
Width: 633
GlyphClass: 1
Flags: W
LayerCount: 2
Fore
SplineSet
333 125 m 1,0,1
 340 125 340 125 354 125 c 128,-1,2
 368 125 368 125 375 125 c 1,3,-1
 375 292 l 1,4,5
 375 292 375 292 250 292 c 1,6,7
 250 292 250 292 250 0 c 1,8,9
 250 0 250 0 42 0 c 1,10,11
 42 0 42 0 42 542 c 1,12,13
 42 542 42 542 0 542 c 1,14,15
 0 542 0 542 0 667 c 1,16,17
 0 667 0 667 250 667 c 1,18,19
 250 667 250 667 250 417 c 1,20,21
 250 417 250 417 375 417 c 1,22,23
 375 417 375 417 375 667 c 1,24,25
 375 667 375 667 583 667 c 1,26,27
 583 667 583 667 583 0 c 1,28,29
 583 0 583 0 333 0 c 1,30,31
 333 0 333 0 333 125 c 1,0,1
EndSplineSet
Validated: 1
EndChar

StartChar: I
Encoding: 73 73 44
Width: 300
GlyphClass: 1
Flags: W
LayerCount: 2
Fore
SplineSet
250 0 m 1,0,1
 250 0 250 0 42 0 c 1,2,3
 42 0 42 0 42 542 c 1,4,5
 42 542 42 542 0 542 c 1,6,7
 0 542 0 542 0 667 c 1,8,9
 0 667 0 667 250 667 c 1,10,11
 250 667 250 667 250 0 c 1,0,1
EndSplineSet
Validated: 1
EndChar

StartChar: J
Encoding: 74 74 45
Width: 550
GlyphClass: 1
Flags: W
LayerCount: 2
Fore
SplineSet
125 542 m 1,0,1
 125 562 125 562 125 604 c 128,-1,2
 125 646 125 646 125 667 c 1,3,-1
 500 667 l 1,4,5
 500 667 500 667 500 83 c 1,6,7
 500 83 500 83 458 83 c 1,8,9
 458 83 458 83 458 42 c 1,10,11
 458 42 458 42 417 42 c 1,12,13
 417 42 417 42 417 0 c 1,14,15
 417 0 417 0 42 0 c 1,16,17
 42 0 42 0 42 42 c 1,18,19
 42 42 42 42 0 42 c 1,20,21
 0 42 0 42 0 208 c 1,22,23
 0 208 0 208 167 208 c 1,24,25
 167 208 167 208 167 125 c 1,26,27
 167 125 167 125 250 125 c 1,28,29
 250 125 250 125 250 167 c 1,30,31
 250 167 250 167 292 167 c 1,32,33
 292 167 292 167 292 542 c 1,34,35
 292 542 292 542 125 542 c 1,0,1
EndSplineSet
Validated: 1
EndChar

StartChar: K
Encoding: 75 75 46
Width: 633
GlyphClass: 1
Flags: W
LayerCount: 2
Fore
SplineSet
42 0 m 1,0,1
 42 90 42 90 42 270.5 c 128,-1,2
 42 451 42 451 42 542 c 1,3,-1
 0 542 l 1,4,5
 0 542 0 542 0 667 c 1,6,7
 0 667 0 667 250 667 c 1,8,9
 250 667 250 667 250 417 c 1,10,11
 250 417 250 417 292 417 c 1,12,13
 292 417 292 417 292 458 c 1,14,15
 292 458 292 458 333 458 c 1,16,17
 333 458 333 458 333 625 c 1,18,19
 333 625 333 625 375 625 c 1,20,21
 375 625 375 625 375 667 c 1,22,23
 375 667 375 667 542 667 c 1,24,25
 542 667 542 667 542 542 c 1,26,27
 542 542 542 542 500 542 c 1,28,29
 500 542 500 542 500 417 c 1,30,31
 500 417 500 417 458 417 c 1,32,33
 458 417 458 417 458 375 c 1,34,35
 458 375 458 375 417 375 c 1,36,37
 417 375 417 375 417 333 c 1,38,39
 417 333 417 333 500 333 c 1,40,41
 500 333 500 333 500 292 c 1,42,43
 500 292 500 292 542 292 c 1,44,45
 542 292 542 292 542 125 c 1,46,47
 542 125 542 125 583 125 c 1,48,49
 583 125 583 125 583 0 c 1,50,51
 583 0 583 0 375 0 c 1,52,53
 375 0 375 0 375 42 c 1,54,55
 375 42 375 42 333 42 c 1,56,57
 333 42 333 42 333 250 c 1,58,59
 333 250 333 250 292 250 c 1,60,61
 292 250 292 250 292 292 c 1,62,63
 292 292 292 292 250 292 c 1,64,65
 250 292 250 292 250 0 c 1,66,67
 250 0 250 0 42 0 c 1,0,1
EndSplineSet
Validated: 1
EndChar

StartChar: L
Encoding: 76 76 47
Width: 592
GlyphClass: 1
Flags: W
LayerCount: 2
Fore
SplineSet
500 0 m 1,0,1
 424 0 424 0 271 0 c 128,-1,2
 118 0 118 0 42 0 c 1,3,-1
 42 542 l 1,4,5
 42 542 42 542 0 542 c 1,6,7
 0 542 0 542 0 667 c 1,8,9
 0 667 0 667 250 667 c 1,10,11
 250 667 250 667 250 125 c 1,12,13
 250 125 250 125 375 125 c 1,14,15
 375 125 375 125 375 208 c 1,16,17
 375 208 375 208 542 208 c 1,18,19
 542 208 542 208 542 42 c 1,20,21
 542 42 542 42 500 42 c 1,22,23
 500 42 500 42 500 0 c 1,0,1
EndSplineSet
Validated: 1
EndChar

StartChar: M
Encoding: 77 77 48
Width: 717
GlyphClass: 1
Flags: W
LayerCount: 2
Fore
SplineSet
417 125 m 1,0,1
 417 125 417 125 458 125 c 1,2,3
 458 125 458 125 458 458 c 1,4,5
 458 458 458 458 417 458 c 1,6,7
 417 458 417 458 417 417 c 1,8,9
 417 417 417 417 375 417 c 1,10,11
 375 417 375 417 375 375 c 1,12,13
 375 375 375 375 333 375 c 1,14,15
 333 375 333 375 333 417 c 1,16,17
 333 417 333 417 292 417 c 1,18,19
 292 417 292 417 292 458 c 1,20,21
 292 458 292 458 250 458 c 1,22,23
 250 458 250 458 250 0 c 1,24,25
 250 0 250 0 42 0 c 1,26,27
 42 0 42 0 42 542 c 1,28,29
 42 542 42 542 0 542 c 1,30,31
 0 542 0 542 0 667 c 1,32,33
 0 667 0 667 250 667 c 1,34,35
 250 667 250 667 250 625 c 1,36,37
 250 625 250 625 292 625 c 1,38,39
 292 625 292 625 292 583 c 1,40,41
 292 583 292 583 333 583 c 1,42,43
 333 583 333 583 333 542 c 1,44,45
 333 542 333 542 375 542 c 1,46,47
 375 542 375 542 375 583 c 1,48,49
 375 583 375 583 417 583 c 1,50,51
 417 583 417 583 417 625 c 1,52,53
 417 625 417 625 458 625 c 1,54,55
 458 625 458 625 458 667 c 1,56,57
 458 667 458 667 667 667 c 1,58,59
 667 667 667 667 667 0 c 1,60,61
 667 0 667 0 417 0 c 1,62,63
 417 0 417 0 417 125 c 1,0,1
EndSplineSet
Validated: 1
EndChar

StartChar: N
Encoding: 78 78 49
Width: 633
GlyphClass: 1
Flags: W
LayerCount: 2
Fore
SplineSet
375 500 m 1,0,1
 375 500 375 500 375 458 c 1,2,3
 375 458 375 458 417 458 c 1,4,5
 417 458 417 458 417 667 c 1,6,7
 417 667 417 667 583 667 c 1,8,9
 583 667 583 667 583 0 c 1,10,11
 583 0 583 0 375 0 c 1,12,13
 375 0 375 0 375 125 c 1,14,15
 375 125 375 125 417 125 c 1,16,17
 417 125 417 125 417 250 c 1,18,19
 417 250 417 250 375 250 c 1,20,21
 375 250 375 250 375 292 c 1,22,23
 375 292 375 292 333 292 c 1,24,25
 333 292 333 292 333 333 c 1,26,27
 333 333 333 333 292 333 c 1,28,29
 292 333 292 333 292 375 c 1,30,31
 292 375 292 375 250 375 c 1,32,33
 250 375 250 375 250 417 c 1,34,35
 250 417 250 417 208 417 c 1,36,37
 208 417 208 417 208 0 c 1,38,39
 208 0 208 0 42 0 c 1,40,41
 42 0 42 0 42 542 c 1,42,43
 42 542 42 542 0 542 c 1,44,45
 0 542 0 542 0 667 c 1,46,47
 0 667 0 667 208 667 c 1,48,49
 208 667 208 667 208 625 c 1,50,51
 208 625 208 625 250 625 c 1,52,53
 250 625 250 625 250 583 c 1,54,55
 250 583 250 583 292 583 c 1,56,57
 292 583 292 583 292 542 c 1,58,59
 292 542 292 542 333 542 c 1,60,61
 333 542 333 542 333 500 c 1,62,63
 333 500 333 500 375 500 c 1,0,1
EndSplineSet
Validated: 1
EndChar

StartChar: O
Encoding: 79 79 50
Width: 592
GlyphClass: 1
Flags: W
LayerCount: 2
Fore
SplineSet
333 167 m 1,0,1
 333 167 333 167 333 542 c 1,2,3
 333 542 333 542 250 542 c 1,4,5
 250 542 250 542 250 500 c 1,6,7
 250 500 250 500 208 500 c 1,8,9
 208 500 208 500 208 125 c 1,10,11
 208 125 208 125 292 125 c 1,12,13
 292 125 292 125 292 167 c 1,14,15
 292 167 292 167 333 167 c 1,0,1
500 583 m 1,16,17
 500 583 500 583 542 583 c 1,18,19
 542 583 542 583 542 125 c 1,20,21
 542 125 542 125 500 125 c 1,22,23
 500 125 500 125 500 83 c 1,24,25
 500 83 500 83 458 83 c 1,26,27
 458 83 458 83 458 42 c 1,28,29
 458 42 458 42 417 42 c 1,30,31
 417 42 417 42 417 0 c 1,32,33
 417 0 417 0 83 0 c 1,34,35
 83 0 83 0 83 42 c 1,36,37
 83 42 83 42 42 42 c 1,38,39
 42 42 42 42 42 83 c 1,40,41
 42 83 42 83 0 83 c 1,42,43
 0 83 0 83 0 542 c 1,44,45
 0 542 0 542 42 542 c 1,46,47
 42 542 42 542 42 583 c 1,48,49
 42 583 42 583 83 583 c 1,50,51
 83 583 83 583 83 625 c 1,52,53
 83 625 83 625 125 625 c 1,54,55
 125 625 125 625 125 667 c 1,56,57
 125 667 125 667 458 667 c 1,58,59
 458 667 458 667 458 625 c 1,60,61
 458 625 458 625 500 625 c 1,62,63
 500 625 500 625 500 583 c 1,16,17
EndSplineSet
Validated: 1
EndChar

StartChar: P
Encoding: 80 80 51
Width: 592
GlyphClass: 1
Flags: W
LayerCount: 2
Fore
SplineSet
375 417 m 1,0,1
 375 417 375 417 375 500 c 1,2,3
 375 500 375 500 333 500 c 1,4,5
 333 500 333 500 333 542 c 1,6,7
 333 542 333 542 250 542 c 1,8,9
 250 542 250 542 250 375 c 1,10,11
 250 375 250 375 333 375 c 1,12,13
 333 375 333 375 333 417 c 1,14,15
 333 417 333 417 375 417 c 1,0,1
500 583 m 1,16,17
 507 583 507 583 521 583 c 128,-1,18
 535 583 535 583 542 583 c 1,19,-1
 542 333 l 1,20,21
 542 333 542 333 500 333 c 1,22,23
 500 333 500 333 500 292 c 1,24,25
 500 292 500 292 458 292 c 1,26,27
 458 292 458 292 458 250 c 1,28,29
 458 250 458 250 250 250 c 1,30,31
 250 250 250 250 250 0 c 1,32,33
 250 0 250 0 42 0 c 1,34,35
 42 0 42 0 42 542 c 1,36,37
 42 542 42 542 0 542 c 1,38,39
 0 542 0 542 0 667 c 1,40,41
 0 667 0 667 458 667 c 1,42,43
 458 667 458 667 458 625 c 1,44,45
 458 625 458 625 500 625 c 1,46,47
 500 625 500 625 500 583 c 1,16,17
EndSplineSet
Validated: 1
EndChar

StartChar: Q
Encoding: 81 81 52
Width: 592
GlyphClass: 1
Flags: W
LayerCount: 2
Fore
SplineSet
333 167 m 1,0,1
 333 167 333 167 333 542 c 1,2,3
 333 542 333 542 250 542 c 1,4,5
 250 542 250 542 250 500 c 1,6,7
 250 500 250 500 208 500 c 1,8,9
 208 500 208 500 208 125 c 1,10,11
 208 125 208 125 250 125 c 1,12,13
 250 125 250 125 250 167 c 1,14,15
 250 167 250 167 333 167 c 1,0,1
500 83 m 1,16,17
 500 83 500 83 458 83 c 1,18,19
 458 83 458 83 458 42 c 1,20,21
 458 42 458 42 542 42 c 1,22,23
 542 42 542 42 542 -42 c 1,24,25
 542 -42 542 -42 250 -42 c 1,26,27
 250 -42 250 -42 250 0 c 1,28,29
 250 0 250 0 83 0 c 1,30,31
 83 0 83 0 83 42 c 1,32,33
 83 42 83 42 42 42 c 1,34,35
 42 42 42 42 42 83 c 1,36,37
 42 83 42 83 0 83 c 1,38,39
 0 83 0 83 0 542 c 1,40,41
 0 542 0 542 42 542 c 1,42,43
 42 542 42 542 42 583 c 1,44,45
 42 583 42 583 83 583 c 1,46,47
 83 583 83 583 83 625 c 1,48,49
 83 625 83 625 125 625 c 1,50,51
 125 625 125 625 125 667 c 1,52,53
 125 667 125 667 458 667 c 1,54,55
 458 667 458 667 458 625 c 1,56,57
 458 625 458 625 500 625 c 1,58,59
 500 625 500 625 500 583 c 1,60,61
 500 583 500 583 542 583 c 1,62,63
 542 583 542 583 542 125 c 1,64,65
 542 125 542 125 500 125 c 1,66,67
 500 125 500 125 500 83 c 1,16,17
EndSplineSet
Validated: 1
EndChar

StartChar: R
Encoding: 82 82 53
Width: 675
GlyphClass: 1
Flags: W
LayerCount: 2
Fore
SplineSet
375 458 m 1,0,1
 375 465 375 465 375 479 c 128,-1,2
 375 493 375 493 375 500 c 1,3,-1
 333 500 l 1,4,5
 333 500 333 500 333 542 c 1,6,7
 333 542 333 542 250 542 c 1,8,9
 250 542 250 542 250 417 c 1,10,11
 250 417 250 417 333 417 c 1,12,13
 333 417 333 417 333 458 c 1,14,15
 333 458 333 458 375 458 c 1,0,1
583 125 m 1,16,17
 590 125 590 125 604 125 c 128,-1,18
 618 125 618 125 625 125 c 1,19,-1
 625 0 l 1,20,21
 625 0 625 0 417 0 c 1,22,23
 417 0 417 0 417 42 c 1,24,25
 417 42 417 42 375 42 c 1,26,27
 375 42 375 42 375 250 c 1,28,29
 375 250 375 250 333 250 c 1,30,31
 333 250 333 250 333 292 c 1,32,33
 333 292 333 292 250 292 c 1,34,35
 250 292 250 292 250 0 c 1,36,37
 250 0 250 0 42 0 c 1,38,39
 42 0 42 0 42 542 c 1,40,41
 42 542 42 542 0 542 c 1,42,43
 0 542 0 542 0 667 c 1,44,45
 0 667 0 667 458 667 c 1,46,47
 458 667 458 667 458 625 c 1,48,49
 458 625 458 625 500 625 c 1,50,51
 500 625 500 625 500 583 c 1,52,53
 500 583 500 583 542 583 c 1,54,55
 542 583 542 583 542 417 c 1,56,57
 542 417 542 417 500 417 c 1,58,59
 500 417 500 417 500 375 c 1,60,61
 500 375 500 375 542 375 c 1,62,63
 542 375 542 375 542 333 c 1,64,65
 542 333 542 333 583 333 c 1,66,67
 583 333 583 333 583 125 c 1,16,17
EndSplineSet
Validated: 1
EndChar

StartChar: S
Encoding: 83 83 54
Width: 550
GlyphClass: 1
Flags: W
LayerCount: 2
Fore
SplineSet
417 0 m 1,0,1
 354 0 354 0 229 0 c 128,-1,2
 104 0 104 0 42 0 c 1,3,-1
 42 42 l 1,4,5
 42 42 42 42 0 42 c 1,6,7
 0 42 0 42 0 208 c 1,8,9
 0 208 0 208 167 208 c 1,10,11
 167 208 167 208 167 125 c 1,12,13
 167 125 167 125 250 125 c 1,14,15
 250 125 250 125 250 167 c 1,16,17
 250 167 250 167 292 167 c 1,18,19
 292 167 292 167 292 250 c 1,20,21
 292 250 292 250 250 250 c 1,22,23
 250 250 250 250 250 292 c 1,24,25
 250 292 250 292 83 292 c 1,26,27
 83 292 83 292 83 333 c 1,28,29
 83 333 83 333 42 333 c 1,30,31
 42 333 42 333 42 375 c 1,32,33
 42 375 42 375 0 375 c 1,34,35
 0 375 0 375 0 583 c 1,36,37
 0 583 0 583 42 583 c 1,38,39
 42 583 42 583 42 625 c 1,40,41
 42 625 42 625 83 625 c 1,42,43
 83 625 83 625 83 667 c 1,44,45
 83 667 83 667 417 667 c 1,46,47
 417 667 417 667 417 625 c 1,48,49
 417 625 417 625 458 625 c 1,50,51
 458 625 458 625 458 500 c 1,52,53
 458 500 458 500 292 500 c 1,54,55
 292 500 292 500 292 542 c 1,56,57
 292 542 292 542 208 542 c 1,58,59
 208 542 208 542 208 500 c 1,60,61
 208 500 208 500 167 500 c 1,62,63
 167 500 167 500 167 458 c 1,64,65
 167 458 167 458 208 458 c 1,66,67
 208 458 208 458 208 417 c 1,68,69
 208 417 208 417 417 417 c 1,70,71
 417 417 417 417 417 375 c 1,72,73
 417 375 417 375 458 375 c 1,74,75
 458 375 458 375 458 333 c 1,76,77
 458 333 458 333 500 333 c 1,78,79
 500 333 500 333 500 83 c 1,80,81
 500 83 500 83 458 83 c 1,82,83
 458 83 458 83 458 42 c 1,84,85
 458 42 458 42 417 42 c 1,86,87
 417 42 417 42 417 0 c 1,0,1
EndSplineSet
Validated: 1
EndChar

StartChar: T
Encoding: 84 84 55
Width: 592
GlyphClass: 1
Flags: W
LayerCount: 2
Fore
SplineSet
542 500 m 1,0,1
 542 500 542 500 417 500 c 1,2,3
 417 500 417 500 417 542 c 1,4,5
 417 542 417 542 375 542 c 1,6,7
 375 542 375 542 375 0 c 1,8,9
 375 0 375 0 167 0 c 1,10,11
 167 0 167 0 167 542 c 1,12,13
 167 542 167 542 125 542 c 1,14,15
 125 542 125 542 125 500 c 1,16,17
 125 500 125 500 0 500 c 1,18,19
 0 500 0 500 0 625 c 1,20,21
 0 625 0 625 42 625 c 1,22,23
 42 625 42 625 42 667 c 1,24,25
 42 667 42 667 500 667 c 1,26,27
 500 667 500 667 500 625 c 1,28,29
 500 625 500 625 542 625 c 1,30,31
 542 625 542 625 542 500 c 1,0,1
EndSplineSet
Validated: 1
EndChar

StartChar: U
Encoding: 85 85 56
Width: 675
GlyphClass: 1
Flags: W
LayerCount: 2
Fore
SplineSet
625 0 m 1,0,1
 625 0 625 0 417 0 c 1,2,3
 417 0 417 0 417 42 c 1,4,5
 417 42 417 42 375 42 c 1,6,7
 375 42 375 42 375 0 c 1,8,9
 375 0 375 0 125 0 c 1,10,11
 125 0 125 0 125 42 c 1,12,13
 125 42 125 42 83 42 c 1,14,15
 83 42 83 42 83 83 c 1,16,17
 83 83 83 83 42 83 c 1,18,19
 42 83 42 83 42 542 c 1,20,21
 42 542 42 542 0 542 c 1,22,23
 0 542 0 542 0 667 c 1,24,25
 0 667 0 667 250 667 c 1,26,27
 250 667 250 667 250 125 c 1,28,29
 250 125 250 125 333 125 c 1,30,31
 333 125 333 125 333 167 c 1,32,33
 333 167 333 167 375 167 c 1,34,35
 375 167 375 167 375 667 c 1,36,37
 375 667 375 667 583 667 c 1,38,39
 583 667 583 667 583 125 c 1,40,41
 583 125 583 125 625 125 c 1,42,43
 625 125 625 125 625 0 c 1,0,1
EndSplineSet
Validated: 1
EndChar

StartChar: V
Encoding: 86 86 57
Width: 592
GlyphClass: 1
Flags: W
LayerCount: 2
Fore
SplineSet
500 208 m 1,0,1
 500 201 500 201 500 187.5 c 128,-1,2
 500 174 500 174 500 167 c 1,3,-1
 458 167 l 1,4,5
 458 167 458 167 458 125 c 1,6,7
 458 125 458 125 417 125 c 1,8,9
 417 125 417 125 417 83 c 1,10,11
 417 83 417 83 375 83 c 1,12,13
 375 83 375 83 375 42 c 1,14,15
 375 42 375 42 333 42 c 1,16,17
 333 42 333 42 333 0 c 1,18,19
 333 0 333 0 83 0 c 1,20,21
 83 0 83 0 83 42 c 1,22,23
 83 42 83 42 42 42 c 1,24,25
 42 42 42 42 42 83 c 1,26,27
 42 83 42 83 0 83 c 1,28,29
 0 83 0 83 0 667 c 1,30,31
 0 667 0 667 208 667 c 1,32,33
 208 667 208 667 208 125 c 1,34,35
 208 125 208 125 292 125 c 1,36,37
 292 125 292 125 292 167 c 1,38,39
 292 167 292 167 333 167 c 1,40,41
 333 167 333 167 333 667 c 1,42,43
 333 667 333 667 542 667 c 1,44,45
 542 667 542 667 542 208 c 1,46,47
 542 208 542 208 500 208 c 1,0,1
EndSplineSet
Validated: 1
EndChar

StartChar: W
Encoding: 87 87 58
Width: 800
GlyphClass: 1
Flags: W
LayerCount: 2
Fore
SplineSet
583 83 m 1,0,1
 583 76 583 76 583 62.5 c 128,-1,2
 583 49 583 49 583 42 c 1,3,-1
 542 42 l 1,4,5
 542 42 542 42 542 0 c 1,6,7
 542 0 542 0 333 0 c 1,8,9
 333 0 333 0 333 42 c 1,10,11
 333 42 333 42 292 42 c 1,12,13
 292 42 292 42 292 0 c 1,14,15
 292 0 292 0 83 0 c 1,16,17
 83 0 83 0 83 42 c 1,18,19
 83 42 83 42 42 42 c 1,20,21
 42 42 42 42 42 83 c 1,22,23
 42 83 42 83 0 83 c 1,24,25
 0 83 0 83 0 667 c 1,26,27
 0 667 0 667 208 667 c 1,28,29
 208 667 208 667 208 125 c 1,30,31
 208 125 208 125 250 125 c 1,32,33
 250 125 250 125 250 167 c 1,34,35
 250 167 250 167 292 167 c 1,36,37
 292 167 292 167 292 667 c 1,38,39
 292 667 292 667 458 667 c 1,40,41
 458 667 458 667 458 125 c 1,42,43
 458 125 458 125 500 125 c 1,44,45
 500 125 500 125 500 167 c 1,46,47
 500 167 500 167 542 167 c 1,48,49
 542 167 542 167 542 667 c 1,50,51
 542 667 542 667 750 667 c 1,52,53
 750 667 750 667 750 208 c 1,54,55
 750 208 750 208 708 208 c 1,56,57
 708 208 708 208 708 167 c 1,58,59
 708 167 708 167 667 167 c 1,60,61
 667 167 667 167 667 125 c 1,62,63
 667 125 667 125 625 125 c 1,64,65
 625 125 625 125 625 83 c 1,66,67
 625 83 625 83 583 83 c 1,0,1
EndSplineSet
Validated: 1
EndChar

StartChar: X
Encoding: 88 88 59
Width: 592
GlyphClass: 1
Flags: W
LayerCount: 2
Fore
SplineSet
333 542 m 1,0,1
 333 542 333 542 333 667 c 1,2,3
 333 667 333 667 542 667 c 1,4,5
 542 667 542 667 542 542 c 1,6,7
 542 542 542 542 500 542 c 1,8,9
 500 542 500 542 500 500 c 1,10,11
 500 500 500 500 458 500 c 1,12,13
 458 500 458 500 458 458 c 1,14,15
 458 458 458 458 417 458 c 1,16,17
 417 458 417 458 417 417 c 1,18,19
 417 417 417 417 375 417 c 1,20,21
 375 417 375 417 375 333 c 1,22,23
 375 333 375 333 417 333 c 1,24,25
 417 333 417 333 417 292 c 1,26,27
 417 292 417 292 458 292 c 1,28,29
 458 292 458 292 458 250 c 1,30,31
 458 250 458 250 500 250 c 1,32,33
 500 250 500 250 500 208 c 1,34,35
 500 208 500 208 542 208 c 1,36,37
 542 208 542 208 542 0 c 1,38,39
 542 0 542 0 333 0 c 1,40,41
 333 0 333 0 333 208 c 1,42,43
 333 208 333 208 292 208 c 1,44,45
 292 208 292 208 292 250 c 1,46,47
 292 250 292 250 250 250 c 1,48,49
 250 250 250 250 250 208 c 1,50,51
 250 208 250 208 208 208 c 1,52,53
 208 208 208 208 208 0 c 1,54,55
 208 0 208 0 0 0 c 1,56,57
 0 0 0 0 0 208 c 1,58,59
 0 208 0 208 42 208 c 1,60,61
 42 208 42 208 42 250 c 1,62,63
 42 250 42 250 83 250 c 1,64,65
 83 250 83 250 83 292 c 1,66,67
 83 292 83 292 125 292 c 1,68,69
 125 292 125 292 125 333 c 1,70,71
 125 333 125 333 167 333 c 1,72,73
 167 333 167 333 167 417 c 1,74,75
 167 417 167 417 125 417 c 1,76,77
 125 417 125 417 125 458 c 1,78,79
 125 458 125 458 83 458 c 1,80,81
 83 458 83 458 83 500 c 1,82,83
 83 500 83 500 42 500 c 1,84,85
 42 500 42 500 42 542 c 1,86,87
 42 542 42 542 0 542 c 1,88,89
 0 542 0 542 0 667 c 1,90,91
 0 667 0 667 208 667 c 1,92,93
 208 667 208 667 208 542 c 1,94,95
 208 542 208 542 250 542 c 1,96,97
 250 542 250 542 250 500 c 1,98,99
 250 500 250 500 292 500 c 1,100,101
 292 500 292 500 292 542 c 1,102,103
 292 542 292 542 333 542 c 1,0,1
EndSplineSet
Validated: 1
EndChar

StartChar: Y
Encoding: 89 89 60
Width: 592
GlyphClass: 1
Flags: W
LayerCount: 2
Fore
SplineSet
333 458 m 1,0,1
 333 493 333 493 333 562.5 c 128,-1,2
 333 632 333 632 333 667 c 1,3,-1
 542 667 l 1,4,5
 542 667 542 667 542 417 c 1,6,7
 542 417 542 417 500 417 c 1,8,9
 500 417 500 417 500 375 c 1,10,11
 500 375 500 375 458 375 c 1,12,13
 458 375 458 375 458 333 c 1,14,15
 458 333 458 333 417 333 c 1,16,17
 417 333 417 333 417 292 c 1,18,19
 417 292 417 292 375 292 c 1,20,21
 375 292 375 292 375 0 c 1,22,23
 375 0 375 0 167 0 c 1,24,25
 167 0 167 0 167 292 c 1,26,27
 167 292 167 292 125 292 c 1,28,29
 125 292 125 292 125 333 c 1,30,31
 125 333 125 333 83 333 c 1,32,33
 83 333 83 333 83 375 c 1,34,35
 83 375 83 375 42 375 c 1,36,37
 42 375 42 375 42 417 c 1,38,39
 42 417 42 417 0 417 c 1,40,41
 0 417 0 417 0 667 c 1,42,43
 0 667 0 667 208 667 c 1,44,45
 208 667 208 667 208 458 c 1,46,47
 208 458 208 458 250 458 c 1,48,49
 250 458 250 458 250 417 c 1,50,51
 250 417 250 417 292 417 c 1,52,53
 292 417 292 417 292 458 c 1,54,55
 292 458 292 458 333 458 c 1,0,1
EndSplineSet
Validated: 1
EndChar

StartChar: Z
Encoding: 90 90 61
Width: 592
GlyphClass: 1
Flags: W
LayerCount: 2
Fore
SplineSet
250 167 m 1,0,1
 243 167 243 167 229 167 c 128,-1,2
 215 167 215 167 208 167 c 1,3,-1
 208 125 l 1,4,5
 208 125 208 125 375 125 c 1,6,7
 375 125 375 125 375 208 c 1,8,9
 375 208 375 208 542 208 c 1,10,11
 542 208 542 208 542 42 c 1,12,13
 542 42 542 42 500 42 c 1,14,15
 500 42 500 42 500 0 c 1,16,17
 500 0 500 0 42 0 c 1,18,19
 42 0 42 0 42 42 c 1,20,21
 42 42 42 42 0 42 c 1,22,23
 0 42 0 42 0 208 c 1,24,25
 0 208 0 208 42 208 c 1,26,27
 42 208 42 208 42 250 c 1,28,29
 42 250 42 250 83 250 c 1,30,31
 83 250 83 250 83 292 c 1,32,33
 83 292 83 292 125 292 c 1,34,35
 125 292 125 292 125 333 c 1,36,37
 125 333 125 333 167 333 c 1,38,39
 167 333 167 333 167 375 c 1,40,41
 167 375 167 375 208 375 c 1,42,43
 208 375 208 375 208 417 c 1,44,45
 208 417 208 417 250 417 c 1,46,47
 250 417 250 417 250 458 c 1,48,49
 250 458 250 458 292 458 c 1,50,51
 292 458 292 458 292 500 c 1,52,53
 292 500 292 500 333 500 c 1,54,55
 333 500 333 500 333 542 c 1,56,57
 333 542 333 542 167 542 c 1,58,59
 167 542 167 542 167 500 c 1,60,61
 167 500 167 500 0 500 c 1,62,63
 0 500 0 500 0 625 c 1,64,65
 0 625 0 625 42 625 c 1,66,67
 42 625 42 625 42 667 c 1,68,69
 42 667 42 667 500 667 c 1,70,71
 500 667 500 667 500 625 c 1,72,73
 500 625 500 625 542 625 c 1,74,75
 542 625 542 625 542 458 c 1,76,77
 542 458 542 458 500 458 c 1,78,79
 500 458 500 458 500 417 c 1,80,81
 500 417 500 417 458 417 c 1,82,83
 458 417 458 417 458 375 c 1,84,85
 458 375 458 375 417 375 c 1,86,87
 417 375 417 375 417 333 c 1,88,89
 417 333 417 333 375 333 c 1,90,91
 375 333 375 333 375 292 c 1,92,93
 375 292 375 292 333 292 c 1,94,95
 333 292 333 292 333 250 c 1,96,97
 333 250 333 250 292 250 c 1,98,99
 292 250 292 250 292 208 c 1,100,101
 292 208 292 208 250 208 c 1,102,103
 250 208 250 208 250 167 c 1,0,1
EndSplineSet
Validated: 1
EndChar

StartChar: bracketleft
Encoding: 91 91 62
Width: 342
GlyphClass: 1
Flags: W
LayerCount: 2
Fore
SplineSet
42 792 m 1,0,1
 42 799 42 799 42 812.5 c 128,-1,2
 42 826 42 826 42 833 c 1,3,-1
 292 833 l 1,4,5
 292 833 292 833 292 750 c 1,6,7
 292 750 292 750 208 750 c 1,8,9
 208 750 208 750 208 708 c 1,10,11
 208 708 208 708 167 708 c 1,12,13
 167 708 167 708 167 125 c 1,14,15
 167 125 167 125 208 125 c 1,16,17
 208 125 208 125 208 83 c 1,18,19
 208 83 208 83 292 83 c 1,20,21
 292 83 292 83 292 0 c 1,22,23
 292 0 292 0 42 0 c 1,24,25
 42 0 42 0 42 42 c 1,26,27
 42 42 42 42 0 42 c 1,28,29
 0 42 0 42 0 792 c 1,30,31
 0 792 0 792 42 792 c 1,0,1
EndSplineSet
Validated: 1
EndChar

StartChar: bracketright
Encoding: 93 93 64
Width: 342
GlyphClass: 1
Flags: W
LayerCount: 2
Fore
SplineSet
250 833 m 1,0,1
 250 833 250 833 250 792 c 1,2,3
 250 792 250 792 292 792 c 1,4,5
 292 792 292 792 292 42 c 1,6,7
 292 42 292 42 250 42 c 1,8,9
 250 42 250 42 250 0 c 1,10,11
 250 0 250 0 0 0 c 1,12,13
 0 0 0 0 0 83 c 1,14,15
 0 83 0 83 83 83 c 1,16,17
 83 83 83 83 83 125 c 1,18,19
 83 125 83 125 125 125 c 1,20,21
 125 125 125 125 125 708 c 1,22,23
 125 708 125 708 83 708 c 1,24,25
 83 708 83 708 83 750 c 1,26,27
 83 750 83 750 0 750 c 1,28,29
 0 750 0 750 0 833 c 1,30,31
 0 833 0 833 250 833 c 1,0,1
EndSplineSet
Validated: 1
EndChar

StartChar: a
Encoding: 97 97 68
Width: 508
GlyphClass: 1
Flags: W
LayerCount: 2
Fore
SplineSet
250 125 m 1,0,1
 250 125 250 125 250 208 c 1,2,3
 250 208 250 208 167 208 c 1,4,5
 167 208 167 208 167 125 c 1,6,7
 167 125 167 125 250 125 c 1,0,1
417 83 m 1,8,9
 424 83 424 83 437.5 83 c 128,-1,10
 451 83 451 83 458 83 c 1,11,-1
 458 0 l 1,12,13
 458 0 458 0 250 0 c 1,14,15
 250 0 250 0 250 42 c 1,16,17
 250 42 250 42 208 42 c 1,18,19
 208 42 208 42 208 0 c 1,20,21
 208 0 208 0 42 0 c 1,22,23
 42 0 42 0 42 42 c 1,24,25
 42 42 42 42 0 42 c 1,26,27
 0 42 0 42 0 250 c 1,28,29
 0 250 0 250 42 250 c 1,30,31
 42 250 42 250 42 292 c 1,32,33
 42 292 42 292 250 292 c 1,34,35
 250 292 250 292 250 375 c 1,36,37
 250 375 250 375 167 375 c 1,38,39
 167 375 167 375 167 333 c 1,40,41
 167 333 167 333 42 333 c 1,42,43
 42 333 42 333 42 458 c 1,44,45
 42 458 42 458 83 458 c 1,46,47
 83 458 83 458 83 500 c 1,48,49
 83 500 83 500 375 500 c 1,50,51
 375 500 375 500 375 458 c 1,52,53
 375 458 375 458 417 458 c 1,54,55
 417 458 417 458 417 83 c 1,8,9
EndSplineSet
Validated: 1
EndChar

StartChar: b
Encoding: 98 98 69
Width: 508
GlyphClass: 1
Flags: W
LayerCount: 2
Fore
SplineSet
292 167 m 1,0,1
 292 167 292 167 292 375 c 1,2,3
 292 375 292 375 250 375 c 1,4,5
 250 375 250 375 250 333 c 1,6,7
 250 333 250 333 208 333 c 1,8,9
 208 333 208 333 208 125 c 1,10,11
 208 125 208 125 250 125 c 1,12,13
 250 125 250 125 250 167 c 1,14,15
 250 167 250 167 292 167 c 1,0,1
417 458 m 1,16,17
 424 458 424 458 437.5 458 c 128,-1,18
 451 458 451 458 458 458 c 1,19,-1
 458 83 l 1,20,21
 458 83 458 83 417 83 c 1,22,23
 417 83 417 83 417 42 c 1,24,25
 417 42 417 42 375 42 c 1,26,27
 375 42 375 42 375 0 c 1,28,29
 375 0 375 0 42 0 c 1,30,31
 42 0 42 0 42 583 c 1,32,33
 42 583 42 583 0 583 c 1,34,35
 0 583 0 583 0 667 c 1,36,37
 0 667 0 667 208 667 c 1,38,39
 208 667 208 667 208 458 c 1,40,41
 208 458 208 458 250 458 c 1,42,43
 250 458 250 458 250 500 c 1,44,45
 250 500 250 500 417 500 c 1,46,47
 417 500 417 500 417 458 c 1,16,17
EndSplineSet
Validated: 1
EndChar

StartChar: c
Encoding: 99 99 70
Width: 467
GlyphClass: 1
Flags: W
LayerCount: 2
Fore
SplineSet
42 0 m 1,0,1
 42 0 42 0 42 42 c 1,2,3
 42 42 42 42 0 42 c 1,4,5
 0 42 0 42 0 417 c 1,6,7
 0 417 0 417 42 417 c 1,8,9
 42 417 42 417 42 458 c 1,10,11
 42 458 42 458 83 458 c 1,12,13
 83 458 83 458 83 500 c 1,14,15
 83 500 83 500 375 500 c 1,16,17
 375 500 375 500 375 458 c 1,18,19
 375 458 375 458 417 458 c 1,20,21
 417 458 417 458 417 292 c 1,22,23
 417 292 417 292 250 292 c 1,24,25
 250 292 250 292 250 375 c 1,26,27
 250 375 250 375 208 375 c 1,28,29
 208 375 208 375 208 333 c 1,30,31
 208 333 208 333 167 333 c 1,32,33
 167 333 167 333 167 125 c 1,34,35
 167 125 167 125 250 125 c 1,36,37
 250 125 250 125 250 167 c 1,38,39
 250 167 250 167 417 167 c 1,40,41
 417 167 417 167 417 42 c 1,42,43
 417 42 417 42 375 42 c 1,44,45
 375 42 375 42 375 0 c 1,46,47
 375 0 375 0 42 0 c 1,0,1
EndSplineSet
Validated: 1
EndChar

StartChar: d
Encoding: 100 100 71
Width: 508
GlyphClass: 1
Flags: W
LayerCount: 2
Fore
SplineSet
250 167 m 1,0,1
 250 167 250 167 250 375 c 1,2,3
 250 375 250 375 208 375 c 1,4,5
 208 375 208 375 208 333 c 1,6,7
 208 333 208 333 167 333 c 1,8,9
 167 333 167 333 167 125 c 1,10,11
 167 125 167 125 208 125 c 1,12,13
 208 125 208 125 208 167 c 1,14,15
 208 167 208 167 250 167 c 1,0,1
417 83 m 1,16,17
 424 83 424 83 437.5 83 c 128,-1,18
 451 83 451 83 458 83 c 1,19,-1
 458 0 l 1,20,21
 458 0 458 0 250 0 c 1,22,23
 250 0 250 0 250 42 c 1,24,25
 250 42 250 42 208 42 c 1,26,27
 208 42 208 42 208 0 c 1,28,29
 208 0 208 0 42 0 c 1,30,31
 42 0 42 0 42 42 c 1,32,33
 42 42 42 42 0 42 c 1,34,35
 0 42 0 42 0 417 c 1,36,37
 0 417 0 417 42 417 c 1,38,39
 42 417 42 417 42 458 c 1,40,41
 42 458 42 458 83 458 c 1,42,43
 83 458 83 458 83 500 c 1,44,45
 83 500 83 500 250 500 c 1,46,47
 250 500 250 500 250 583 c 1,48,49
 250 583 250 583 208 583 c 1,50,51
 208 583 208 583 208 667 c 1,52,53
 208 667 208 667 417 667 c 1,54,55
 417 667 417 667 417 83 c 1,16,17
EndSplineSet
Validated: 1
EndChar

StartChar: e
Encoding: 101 101 72
Width: 467
GlyphClass: 1
Flags: W
LayerCount: 2
Fore
SplineSet
167 375 m 1,0,1
 167 375 167 375 167 292 c 1,2,3
 167 292 167 292 250 292 c 1,4,5
 250 292 250 292 250 375 c 1,6,7
 250 375 250 375 167 375 c 1,0,1
375 208 m 1,8,9
 375 208 375 208 167 208 c 1,10,11
 167 208 167 208 167 125 c 1,12,13
 167 125 167 125 250 125 c 1,14,15
 250 125 250 125 250 167 c 1,16,17
 250 167 250 167 417 167 c 1,18,19
 417 167 417 167 417 42 c 1,20,21
 417 42 417 42 375 42 c 1,22,23
 375 42 375 42 375 0 c 1,24,25
 375 0 375 0 42 0 c 1,26,27
 42 0 42 0 42 42 c 1,28,29
 42 42 42 42 0 42 c 1,30,31
 0 42 0 42 0 417 c 1,32,33
 0 417 0 417 42 417 c 1,34,35
 42 417 42 417 42 458 c 1,36,37
 42 458 42 458 83 458 c 1,38,39
 83 458 83 458 83 500 c 1,40,41
 83 500 83 500 375 500 c 1,42,43
 375 500 375 500 375 458 c 1,44,45
 375 458 375 458 417 458 c 1,46,47
 417 458 417 458 417 250 c 1,48,49
 417 250 417 250 375 250 c 1,50,51
 375 250 375 250 375 208 c 1,8,9
EndSplineSet
Validated: 1
EndChar

StartChar: f
Encoding: 102 102 73
Width: 383
GlyphClass: 1
Flags: W
LayerCount: 2
Fore
SplineSet
42 0 m 1,0,1
 42 62 42 62 42 187.5 c 128,-1,2
 42 313 42 313 42 375 c 1,3,-1
 0 375 l 1,4,5
 0 375 0 375 0 500 c 1,6,7
 0 500 0 500 42 500 c 1,8,9
 42 500 42 500 42 542 c 1,10,11
 42 542 42 542 83 542 c 1,12,13
 83 542 83 542 83 583 c 1,14,15
 83 583 83 583 125 583 c 1,16,17
 125 583 125 583 125 625 c 1,18,19
 125 625 125 625 167 625 c 1,20,21
 167 625 167 625 167 667 c 1,22,23
 167 667 167 667 333 667 c 1,24,25
 333 667 333 667 333 583 c 1,26,27
 333 583 333 583 250 583 c 1,28,29
 250 583 250 583 250 542 c 1,30,31
 250 542 250 542 208 542 c 1,32,33
 208 542 208 542 208 500 c 1,34,35
 208 500 208 500 333 500 c 1,36,37
 333 500 333 500 333 375 c 1,38,39
 333 375 333 375 208 375 c 1,40,41
 208 375 208 375 208 0 c 1,42,43
 208 0 208 0 42 0 c 1,0,1
EndSplineSet
Validated: 1
EndChar

StartChar: g
Encoding: 103 103 74
Width: 508
GlyphClass: 1
Flags: W
LayerCount: 2
Fore
SplineSet
250 167 m 1,0,1
 250 167 250 167 250 375 c 1,2,3
 250 375 250 375 208 375 c 1,4,5
 208 375 208 375 208 333 c 1,6,7
 208 333 208 333 167 333 c 1,8,9
 167 333 167 333 167 125 c 1,10,11
 167 125 167 125 208 125 c 1,12,13
 208 125 208 125 208 167 c 1,14,15
 208 167 208 167 250 167 c 1,0,1
83 500 m 1,16,17
 146 500 146 500 271 500 c 128,-1,18
 396 500 396 500 458 500 c 1,19,-1
 458 417 l 1,20,21
 458 417 458 417 417 417 c 1,22,23
 417 417 417 417 417 -125 c 1,24,25
 417 -125 417 -125 375 -125 c 1,26,27
 375 -125 375 -125 375 -167 c 1,28,29
 375 -167 375 -167 333 -167 c 1,30,31
 333 -167 333 -167 333 -208 c 1,32,33
 333 -208 333 -208 83 -208 c 1,34,35
 83 -208 83 -208 83 -167 c 1,36,37
 83 -167 83 -167 0 -167 c 1,38,39
 0 -167 0 -167 0 -42 c 1,40,41
 0 -42 0 -42 167 -42 c 1,42,43
 167 -42 167 -42 167 -83 c 1,44,45
 167 -83 167 -83 250 -83 c 1,46,47
 250 -83 250 -83 250 42 c 1,48,49
 250 42 250 42 208 42 c 1,50,51
 208 42 208 42 208 0 c 1,52,53
 208 0 208 0 42 0 c 1,54,55
 42 0 42 0 42 42 c 1,56,57
 42 42 42 42 0 42 c 1,58,59
 0 42 0 42 0 417 c 1,60,61
 0 417 0 417 42 417 c 1,62,63
 42 417 42 417 42 458 c 1,64,65
 42 458 42 458 83 458 c 1,66,67
 83 458 83 458 83 500 c 1,16,17
EndSplineSet
Validated: 1
EndChar

StartChar: h
Encoding: 104 104 75
Width: 550
GlyphClass: 1
Flags: W
LayerCount: 2
Fore
SplineSet
42 0 m 1,0,1
 42 97 42 97 42 291.5 c 128,-1,2
 42 486 42 486 42 583 c 1,3,-1
 0 583 l 1,4,5
 0 583 0 583 0 667 c 1,6,7
 0 667 0 667 208 667 c 1,8,9
 208 667 208 667 208 417 c 1,10,11
 208 417 208 417 250 417 c 1,12,13
 250 417 250 417 250 458 c 1,14,15
 250 458 250 458 292 458 c 1,16,17
 292 458 292 458 292 500 c 1,18,19
 292 500 292 500 417 500 c 1,20,21
 417 500 417 500 417 458 c 1,22,23
 417 458 417 458 458 458 c 1,24,25
 458 458 458 458 458 83 c 1,26,27
 458 83 458 83 500 83 c 1,28,29
 500 83 500 83 500 0 c 1,30,31
 500 0 500 0 292 0 c 1,32,33
 292 0 292 0 292 333 c 1,34,35
 292 333 292 333 250 333 c 1,36,37
 250 333 250 333 250 292 c 1,38,39
 250 292 250 292 208 292 c 1,40,41
 208 292 208 292 208 0 c 1,42,43
 208 0 208 0 42 0 c 1,0,1
EndSplineSet
Validated: 1
EndChar

StartChar: i
Encoding: 105 105 76
Width: 258
GlyphClass: 1
Flags: W
LayerCount: 2
Fore
SplineSet
42 0 m 1,0,1
 42 0 42 0 42 417 c 1,2,3
 42 417 42 417 0 417 c 1,4,5
 0 417 0 417 0 500 c 1,6,7
 0 500 0 500 208 500 c 1,8,9
 208 500 208 500 208 0 c 1,10,11
 208 0 208 0 42 0 c 1,0,1
83 542 m 1,12,13
 83 542 83 542 83 583 c 1,14,15
 83 583 83 583 42 583 c 1,16,17
 42 583 42 583 42 625 c 1,18,19
 42 625 42 625 83 625 c 1,20,21
 83 625 83 625 83 667 c 1,22,23
 83 667 83 667 167 667 c 1,24,25
 167 667 167 667 167 625 c 1,26,27
 167 625 167 625 208 625 c 1,28,29
 208 625 208 625 208 583 c 1,30,31
 208 583 208 583 167 583 c 1,32,33
 167 583 167 583 167 542 c 1,34,35
 167 542 167 542 83 542 c 1,12,13
EndSplineSet
Validated: 1
EndChar

StartChar: j
Encoding: 106 106 77
Width: 300
GlyphClass: 1
Flags: W
LayerCount: 2
Fore
SplineSet
83 -125 m 1,0,1
 83 -35 83 -35 83 145.5 c 128,-1,2
 83 326 83 326 83 417 c 1,3,-1
 42 417 l 1,4,5
 42 417 42 417 42 500 c 1,6,7
 42 500 42 500 250 500 c 1,8,9
 250 500 250 500 250 -167 c 1,10,11
 250 -167 250 -167 208 -167 c 1,12,13
 208 -167 208 -167 208 -208 c 1,14,15
 208 -208 208 -208 0 -208 c 1,16,17
 0 -208 0 -208 0 -125 c 1,18,19
 0 -125 0 -125 83 -125 c 1,0,1
125 542 m 1,20,21
 125 542 125 542 125 583 c 1,22,23
 125 583 125 583 83 583 c 1,24,25
 83 583 83 583 83 625 c 1,26,27
 83 625 83 625 125 625 c 1,28,29
 125 625 125 625 125 667 c 1,30,31
 125 667 125 667 208 667 c 1,32,33
 208 667 208 667 208 625 c 1,34,35
 208 625 208 625 250 625 c 1,36,37
 250 625 250 625 250 583 c 1,38,39
 250 583 250 583 208 583 c 1,40,41
 208 583 208 583 208 542 c 1,42,43
 208 542 208 542 125 542 c 1,20,21
EndSplineSet
Validated: 1
EndChar

StartChar: k
Encoding: 107 107 78
Width: 550
GlyphClass: 1
Flags: W
LayerCount: 2
Fore
SplineSet
42 0 m 1,0,1
 42 97 42 97 42 291.5 c 128,-1,2
 42 486 42 486 42 583 c 1,3,-1
 0 583 l 1,4,5
 0 583 0 583 0 667 c 1,6,7
 0 667 0 667 208 667 c 1,8,9
 208 667 208 667 208 375 c 1,10,11
 208 375 208 375 250 375 c 1,12,13
 250 375 250 375 250 417 c 1,14,15
 250 417 250 417 292 417 c 1,16,17
 292 417 292 417 292 500 c 1,18,19
 292 500 292 500 458 500 c 1,20,21
 458 500 458 500 458 417 c 1,22,23
 458 417 458 417 417 417 c 1,24,25
 417 417 417 417 417 333 c 1,26,27
 417 333 417 333 375 333 c 1,28,29
 375 333 375 333 375 292 c 1,30,31
 375 292 375 292 417 292 c 1,32,33
 417 292 417 292 417 250 c 1,34,35
 417 250 417 250 458 250 c 1,36,37
 458 250 458 250 458 83 c 1,38,39
 458 83 458 83 500 83 c 1,40,41
 500 83 500 83 500 0 c 1,42,43
 500 0 500 0 292 0 c 1,44,45
 292 0 292 0 292 208 c 1,46,47
 292 208 292 208 250 208 c 1,48,49
 250 208 250 208 250 250 c 1,50,51
 250 250 250 250 208 250 c 1,52,53
 208 250 208 250 208 0 c 1,54,55
 208 0 208 0 42 0 c 1,0,1
EndSplineSet
Validated: 1
EndChar

StartChar: l
Encoding: 108 108 79
Width: 258
GlyphClass: 1
Flags: W
LayerCount: 2
Fore
SplineSet
42 0 m 1,0,1
 42 0 42 0 42 625 c 1,2,3
 42 625 42 625 0 625 c 1,4,5
 0 625 0 625 0 708 c 1,6,7
 0 708 0 708 208 708 c 1,8,9
 208 708 208 708 208 0 c 1,10,11
 208 0 208 0 42 0 c 1,0,1
EndSplineSet
Validated: 1
EndChar

StartChar: m
Encoding: 109 109 80
Width: 800
GlyphClass: 1
Flags: W
LayerCount: 2
Fore
SplineSet
500 333 m 1,0,1
 500 326 500 326 500 312.5 c 128,-1,2
 500 299 500 299 500 292 c 1,3,-1
 458 292 l 1,4,5
 458 292 458 292 458 0 c 1,6,7
 458 0 458 0 292 0 c 1,8,9
 292 0 292 0 292 333 c 1,10,11
 292 333 292 333 250 333 c 1,12,13
 250 333 250 333 250 292 c 1,14,15
 250 292 250 292 208 292 c 1,16,17
 208 292 208 292 208 0 c 1,18,19
 208 0 208 0 42 0 c 1,20,21
 42 0 42 0 42 417 c 1,22,23
 42 417 42 417 0 417 c 1,24,25
 0 417 0 417 0 500 c 1,26,27
 0 500 0 500 208 500 c 1,28,29
 208 500 208 500 208 417 c 1,30,31
 208 417 208 417 250 417 c 1,32,33
 250 417 250 417 250 458 c 1,34,35
 250 458 250 458 292 458 c 1,36,37
 292 458 292 458 292 500 c 1,38,39
 292 500 292 500 458 500 c 1,40,41
 458 500 458 500 458 417 c 1,42,43
 458 417 458 417 500 417 c 1,44,45
 500 417 500 417 500 458 c 1,46,47
 500 458 500 458 542 458 c 1,48,49
 542 458 542 458 542 500 c 1,50,51
 542 500 542 500 667 500 c 1,52,53
 667 500 667 500 667 458 c 1,54,55
 667 458 667 458 708 458 c 1,56,57
 708 458 708 458 708 83 c 1,58,59
 708 83 708 83 750 83 c 1,60,61
 750 83 750 83 750 0 c 1,62,63
 750 0 750 0 542 0 c 1,64,65
 542 0 542 0 542 333 c 1,66,67
 542 333 542 333 500 333 c 1,0,1
EndSplineSet
Validated: 1
EndChar

StartChar: n
Encoding: 110 110 81
Width: 550
GlyphClass: 1
Flags: W
LayerCount: 2
Fore
SplineSet
42 0 m 1,0,1
 42 69 42 69 42 208 c 128,-1,2
 42 347 42 347 42 417 c 1,3,-1
 0 417 l 1,4,5
 0 417 0 417 0 500 c 1,6,7
 0 500 0 500 208 500 c 1,8,9
 208 500 208 500 208 417 c 1,10,11
 208 417 208 417 250 417 c 1,12,13
 250 417 250 417 250 458 c 1,14,15
 250 458 250 458 292 458 c 1,16,17
 292 458 292 458 292 500 c 1,18,19
 292 500 292 500 417 500 c 1,20,21
 417 500 417 500 417 458 c 1,22,23
 417 458 417 458 458 458 c 1,24,25
 458 458 458 458 458 83 c 1,26,27
 458 83 458 83 500 83 c 1,28,29
 500 83 500 83 500 0 c 1,30,31
 500 0 500 0 292 0 c 1,32,33
 292 0 292 0 292 333 c 1,34,35
 292 333 292 333 250 333 c 1,36,37
 250 333 250 333 250 292 c 1,38,39
 250 292 250 292 208 292 c 1,40,41
 208 292 208 292 208 0 c 1,42,43
 208 0 208 0 42 0 c 1,0,1
EndSplineSet
Validated: 1
EndChar

StartChar: o
Encoding: 111 111 82
Width: 467
GlyphClass: 1
Flags: W
LayerCount: 2
Fore
SplineSet
250 167 m 5,0,1
 250 167 250 167 250 375 c 5,2,3
 250 375 250 375 208 375 c 5,4,5
 208 375 208 375 208 333 c 5,6,7
 208 333 208 333 167 333 c 5,8,9
 167 333 167 333 167 125 c 5,10,11
 167 125 167 125 208 125 c 5,12,13
 208 125 208 125 208 167 c 5,14,15
 208 167 208 167 250 167 c 5,0,1
375 458 m 5,16,17
 375 458 375 458 417 458 c 5,18,19
 417 458 417 458 417 83 c 5,20,21
 417 83 417 83 375 83 c 5,22,23
 375 83 375 83 375 42 c 5,24,25
 375 42 375 42 333 42 c 5,26,27
 333 42 333 42 333 0 c 5,28,29
 333 0 333 0 42 0 c 5,30,31
 42 0 42 0 42 42 c 5,32,33
 42 42 42 42 0 42 c 5,34,35
 0 42 0 42 0 417 c 5,36,37
 0 417 0 417 42 417 c 5,38,39
 42 417 42 417 42 458 c 5,40,41
 42 458 42 458 83 458 c 5,42,43
 83 458 83 458 83 500 c 5,44,45
 83 500 83 500 375 500 c 5,46,47
 375 500 375 500 375 458 c 5,16,17
EndSplineSet
Validated: 1
EndChar

StartChar: p
Encoding: 112 112 83
Width: 508
GlyphClass: 1
Flags: W
LayerCount: 2
Fore
SplineSet
292 167 m 1,0,1
 292 167 292 167 292 375 c 1,2,3
 292 375 292 375 250 375 c 1,4,5
 250 375 250 375 250 333 c 1,6,7
 250 333 250 333 208 333 c 1,8,9
 208 333 208 333 208 125 c 1,10,11
 208 125 208 125 250 125 c 1,12,13
 250 125 250 125 250 167 c 1,14,15
 250 167 250 167 292 167 c 1,0,1
417 458 m 1,16,17
 424 458 424 458 437.5 458 c 128,-1,18
 451 458 451 458 458 458 c 1,19,-1
 458 83 l 1,20,21
 458 83 458 83 417 83 c 1,22,23
 417 83 417 83 417 42 c 1,24,25
 417 42 417 42 375 42 c 1,26,27
 375 42 375 42 375 0 c 1,28,29
 375 0 375 0 208 0 c 1,30,31
 208 0 208 0 208 -208 c 1,32,33
 208 -208 208 -208 42 -208 c 1,34,35
 42 -208 42 -208 42 417 c 1,36,37
 42 417 42 417 0 417 c 1,38,39
 0 417 0 417 0 500 c 1,40,41
 0 500 0 500 208 500 c 1,42,43
 208 500 208 500 208 458 c 1,44,45
 208 458 208 458 250 458 c 1,46,47
 250 458 250 458 250 500 c 1,48,49
 250 500 250 500 417 500 c 1,50,51
 417 500 417 500 417 458 c 1,16,17
EndSplineSet
Validated: 1
EndChar

StartChar: q
Encoding: 113 113 84
Width: 508
GlyphClass: 1
Flags: W
LayerCount: 2
Fore
SplineSet
250 167 m 1,0,1
 250 167 250 167 250 375 c 1,2,3
 250 375 250 375 208 375 c 1,4,5
 208 375 208 375 208 333 c 1,6,7
 208 333 208 333 167 333 c 1,8,9
 167 333 167 333 167 125 c 1,10,11
 167 125 167 125 208 125 c 1,12,13
 208 125 208 125 208 167 c 1,14,15
 208 167 208 167 250 167 c 1,0,1
83 500 m 1,16,17
 146 500 146 500 271 500 c 128,-1,18
 396 500 396 500 458 500 c 1,19,-1
 458 417 l 1,20,21
 458 417 458 417 417 417 c 1,22,23
 417 417 417 417 417 -208 c 1,24,25
 417 -208 417 -208 250 -208 c 1,26,27
 250 -208 250 -208 250 42 c 1,28,29
 250 42 250 42 208 42 c 1,30,31
 208 42 208 42 208 0 c 1,32,33
 208 0 208 0 42 0 c 1,34,35
 42 0 42 0 42 42 c 1,36,37
 42 42 42 42 0 42 c 1,38,39
 0 42 0 42 0 417 c 1,40,41
 0 417 0 417 42 417 c 1,42,43
 42 417 42 417 42 458 c 1,44,45
 42 458 42 458 83 458 c 1,46,47
 83 458 83 458 83 500 c 1,16,17
EndSplineSet
Validated: 1
EndChar

StartChar: r
Encoding: 114 114 85
Width: 425
GlyphClass: 1
Flags: W
LayerCount: 2
Fore
SplineSet
42 0 m 1,0,1
 42 69 42 69 42 208 c 128,-1,2
 42 347 42 347 42 417 c 1,3,-1
 0 417 l 1,4,5
 0 417 0 417 0 500 c 1,6,7
 0 500 0 500 208 500 c 1,8,9
 208 500 208 500 208 458 c 1,10,11
 208 458 208 458 250 458 c 1,12,13
 250 458 250 458 250 500 c 1,14,15
 250 500 250 500 375 500 c 1,16,17
 375 500 375 500 375 375 c 1,18,19
 375 375 375 375 250 375 c 1,20,21
 250 375 250 375 250 333 c 1,22,23
 250 333 250 333 208 333 c 1,24,25
 208 333 208 333 208 0 c 1,26,27
 208 0 208 0 42 0 c 1,0,1
EndSplineSet
Validated: 1
EndChar

StartChar: s
Encoding: 115 115 86
Width: 467
GlyphClass: 1
Flags: W
LayerCount: 2
Fore
SplineSet
42 0 m 1,0,1
 42 7 42 7 42 21 c 128,-1,2
 42 35 42 35 42 42 c 1,3,-1
 0 42 l 1,4,5
 0 42 0 42 0 167 c 1,6,7
 0 167 0 167 125 167 c 1,8,9
 125 167 125 167 125 125 c 1,10,11
 125 125 125 125 250 125 c 1,12,13
 250 125 250 125 250 208 c 1,14,15
 250 208 250 208 42 208 c 1,16,17
 42 208 42 208 42 250 c 1,18,19
 42 250 42 250 0 250 c 1,20,21
 0 250 0 250 0 417 c 1,22,23
 0 417 0 417 42 417 c 1,24,25
 42 417 42 417 42 458 c 1,26,27
 42 458 42 458 83 458 c 1,28,29
 83 458 83 458 83 500 c 1,30,31
 83 500 83 500 375 500 c 1,32,33
 375 500 375 500 375 458 c 1,34,35
 375 458 375 458 417 458 c 1,36,37
 417 458 417 458 417 333 c 1,38,39
 417 333 417 333 292 333 c 1,40,41
 292 333 292 333 292 375 c 1,42,43
 292 375 292 375 167 375 c 1,44,45
 167 375 167 375 167 292 c 1,46,47
 167 292 167 292 375 292 c 1,48,49
 375 292 375 292 375 250 c 1,50,51
 375 250 375 250 417 250 c 1,52,53
 417 250 417 250 417 42 c 1,54,55
 417 42 417 42 375 42 c 1,56,57
 375 42 375 42 375 0 c 1,58,59
 375 0 375 0 42 0 c 1,0,1
EndSplineSet
Validated: 1
EndChar

StartChar: t
Encoding: 116 116 87
Width: 383
GlyphClass: 1
Flags: W
LayerCount: 2
Fore
SplineSet
42 42 m 1,0,1
 42 97 42 97 42 208 c 128,-1,2
 42 319 42 319 42 375 c 1,3,-1
 0 375 l 1,4,5
 0 375 0 375 0 500 c 1,6,7
 0 500 0 500 42 500 c 1,8,9
 42 500 42 500 42 542 c 1,10,11
 42 542 42 542 83 542 c 1,12,13
 83 542 83 542 83 583 c 1,14,15
 83 583 83 583 208 583 c 1,16,17
 208 583 208 583 208 500 c 1,18,19
 208 500 208 500 333 500 c 1,20,21
 333 500 333 500 333 375 c 1,22,23
 333 375 333 375 208 375 c 1,24,25
 208 375 208 375 208 125 c 1,26,27
 208 125 208 125 333 125 c 1,28,29
 333 125 333 125 333 0 c 1,30,31
 333 0 333 0 83 0 c 1,32,33
 83 0 83 0 83 42 c 1,34,35
 83 42 83 42 42 42 c 1,0,1
EndSplineSet
Validated: 1
EndChar

StartChar: u
Encoding: 117 117 88
Width: 550
GlyphClass: 1
Flags: W
LayerCount: 2
Fore
SplineSet
42 42 m 1,0,1
 42 104 42 104 42 229 c 128,-1,2
 42 354 42 354 42 417 c 1,3,-1
 0 417 l 1,4,5
 0 417 0 417 0 500 c 1,6,7
 0 500 0 500 208 500 c 1,8,9
 208 500 208 500 208 167 c 1,10,11
 208 167 208 167 250 167 c 1,12,13
 250 167 250 167 250 208 c 1,14,15
 250 208 250 208 292 208 c 1,16,17
 292 208 292 208 292 500 c 1,18,19
 292 500 292 500 458 500 c 1,20,21
 458 500 458 500 458 83 c 1,22,23
 458 83 458 83 500 83 c 1,24,25
 500 83 500 83 500 0 c 1,26,27
 500 0 500 0 292 0 c 1,28,29
 292 0 292 0 292 83 c 1,30,31
 292 83 292 83 250 83 c 1,32,33
 250 83 250 83 250 42 c 1,34,35
 250 42 250 42 208 42 c 1,36,37
 208 42 208 42 208 0 c 1,38,39
 208 0 208 0 83 0 c 1,40,41
 83 0 83 0 83 42 c 1,42,43
 83 42 83 42 42 42 c 1,0,1
EndSplineSet
Validated: 1
EndChar

StartChar: v
Encoding: 118 118 89
Width: 467
GlyphClass: 1
Flags: W
LayerCount: 2
Fore
SplineSet
42 0 m 1,0,1
 42 7 42 7 42 21 c 128,-1,2
 42 35 42 35 42 42 c 1,3,-1
 0 42 l 1,4,5
 0 42 0 42 0 500 c 1,6,7
 0 500 0 500 167 500 c 1,8,9
 167 500 167 500 167 125 c 1,10,11
 167 125 167 125 208 125 c 1,12,13
 208 125 208 125 208 167 c 1,14,15
 208 167 208 167 250 167 c 1,16,17
 250 167 250 167 250 500 c 1,18,19
 250 500 250 500 417 500 c 1,20,21
 417 500 417 500 417 167 c 1,22,23
 417 167 417 167 375 167 c 1,24,25
 375 167 375 167 375 125 c 1,26,27
 375 125 375 125 333 125 c 1,28,29
 333 125 333 125 333 83 c 1,30,31
 333 83 333 83 292 83 c 1,32,33
 292 83 292 83 292 42 c 1,34,35
 292 42 292 42 250 42 c 1,36,37
 250 42 250 42 250 0 c 1,38,39
 250 0 250 0 42 0 c 1,0,1
EndSplineSet
Validated: 1
EndChar

StartChar: w
Encoding: 119 119 90
Width: 675
GlyphClass: 1
Flags: W
LayerCount: 2
Fore
SplineSet
42 0 m 1,0,1
 42 7 42 7 42 21 c 128,-1,2
 42 35 42 35 42 42 c 1,3,-1
 0 42 l 1,4,5
 0 42 0 42 0 500 c 1,6,7
 0 500 0 500 167 500 c 1,8,9
 167 500 167 500 167 125 c 1,10,11
 167 125 167 125 208 125 c 1,12,13
 208 125 208 125 208 167 c 1,14,15
 208 167 208 167 250 167 c 1,16,17
 250 167 250 167 250 500 c 1,18,19
 250 500 250 500 375 500 c 1,20,21
 375 500 375 500 375 125 c 1,22,23
 375 125 375 125 417 125 c 1,24,25
 417 125 417 125 417 167 c 1,26,27
 417 167 417 167 458 167 c 1,28,29
 458 167 458 167 458 500 c 1,30,31
 458 500 458 500 625 500 c 1,32,33
 625 500 625 500 625 167 c 1,34,35
 625 167 625 167 583 167 c 1,36,37
 583 167 583 167 583 125 c 1,38,39
 583 125 583 125 542 125 c 1,40,41
 542 125 542 125 542 83 c 1,42,43
 542 83 542 83 500 83 c 1,44,45
 500 83 500 83 500 42 c 1,46,47
 500 42 500 42 458 42 c 1,48,49
 458 42 458 42 458 0 c 1,50,51
 458 0 458 0 250 0 c 1,52,53
 250 0 250 0 250 42 c 1,54,55
 250 42 250 42 208 42 c 1,56,57
 208 42 208 42 208 0 c 1,58,59
 208 0 208 0 42 0 c 1,0,1
EndSplineSet
Validated: 1
EndChar

StartChar: x
Encoding: 120 120 91
Width: 508
GlyphClass: 1
Flags: W
LayerCount: 2
Fore
SplineSet
167 125 m 1,0,1
 167 125 167 125 167 0 c 1,2,3
 167 0 167 0 0 0 c 1,4,5
 0 0 0 0 0 125 c 1,6,7
 0 125 0 125 42 125 c 1,8,9
 42 125 42 125 42 167 c 1,10,11
 42 167 42 167 83 167 c 1,12,13
 83 167 83 167 83 208 c 1,14,15
 83 208 83 208 125 208 c 1,16,17
 125 208 125 208 125 292 c 1,18,19
 125 292 125 292 83 292 c 1,20,21
 83 292 83 292 83 333 c 1,22,23
 83 333 83 333 42 333 c 1,24,25
 42 333 42 333 42 375 c 1,26,27
 42 375 42 375 0 375 c 1,28,29
 0 375 0 375 0 500 c 1,30,31
 0 500 0 500 167 500 c 1,32,33
 167 500 167 500 167 375 c 1,34,35
 167 375 167 375 208 375 c 1,36,37
 208 375 208 375 208 333 c 1,38,39
 208 333 208 333 250 333 c 1,40,41
 250 333 250 333 250 375 c 1,42,43
 250 375 250 375 292 375 c 1,44,45
 292 375 292 375 292 500 c 1,46,47
 292 500 292 500 458 500 c 1,48,49
 458 500 458 500 458 375 c 1,50,51
 458 375 458 375 417 375 c 1,52,53
 417 375 417 375 417 333 c 1,54,55
 417 333 417 333 375 333 c 1,56,57
 375 333 375 333 375 292 c 1,58,59
 375 292 375 292 333 292 c 1,60,61
 333 292 333 292 333 208 c 1,62,63
 333 208 333 208 375 208 c 1,64,65
 375 208 375 208 375 167 c 1,66,67
 375 167 375 167 417 167 c 1,68,69
 417 167 417 167 417 125 c 1,70,71
 417 125 417 125 458 125 c 1,72,73
 458 125 458 125 458 0 c 1,74,75
 458 0 458 0 292 0 c 1,76,77
 292 0 292 0 292 125 c 1,78,79
 292 125 292 125 250 125 c 1,80,81
 250 125 250 125 250 167 c 1,82,83
 250 167 250 167 208 167 c 1,84,85
 208 167 208 167 208 125 c 1,86,87
 208 125 208 125 167 125 c 1,0,1
EndSplineSet
Validated: 1
EndChar

StartChar: y
Encoding: 121 121 92
Width: 508
GlyphClass: 1
Flags: W
LayerCount: 2
Fore
SplineSet
42 42 m 1,0,1
 42 104 42 104 42 229 c 128,-1,2
 42 354 42 354 42 417 c 1,3,-1
 0 417 l 1,4,5
 0 417 0 417 0 500 c 1,6,7
 0 500 0 500 208 500 c 1,8,9
 208 500 208 500 208 167 c 1,10,11
 208 167 208 167 250 167 c 1,12,13
 250 167 250 167 250 208 c 1,14,15
 250 208 250 208 292 208 c 1,16,17
 292 208 292 208 292 500 c 1,18,19
 292 500 292 500 458 500 c 1,20,21
 458 500 458 500 458 -125 c 1,22,23
 458 -125 458 -125 417 -125 c 1,24,25
 417 -125 417 -125 417 -167 c 1,26,27
 417 -167 417 -167 375 -167 c 1,28,29
 375 -167 375 -167 375 -208 c 1,30,31
 375 -208 375 -208 125 -208 c 1,32,33
 125 -208 125 -208 125 -167 c 1,34,35
 125 -167 125 -167 42 -167 c 1,36,37
 42 -167 42 -167 42 -42 c 1,38,39
 42 -42 42 -42 208 -42 c 1,40,41
 208 -42 208 -42 208 -83 c 1,42,43
 208 -83 208 -83 292 -83 c 1,44,45
 292 -83 292 -83 292 83 c 1,46,47
 292 83 292 83 250 83 c 1,48,49
 250 83 250 83 250 42 c 1,50,51
 250 42 250 42 208 42 c 1,52,53
 208 42 208 42 208 0 c 1,54,55
 208 0 208 0 83 0 c 1,56,57
 83 0 83 0 83 42 c 1,58,59
 83 42 83 42 42 42 c 1,0,1
EndSplineSet
Validated: 1
EndChar

StartChar: z
Encoding: 122 122 93
Width: 467
GlyphClass: 1
Flags: W
LayerCount: 2
Fore
SplineSet
42 0 m 1,0,1
 42 7 42 7 42 21 c 128,-1,2
 42 35 42 35 42 42 c 1,3,-1
 0 42 l 1,4,5
 0 42 0 42 0 167 c 1,6,7
 0 167 0 167 42 167 c 1,8,9
 42 167 42 167 42 208 c 1,10,11
 42 208 42 208 83 208 c 1,12,13
 83 208 83 208 83 250 c 1,14,15
 83 250 83 250 125 250 c 1,16,17
 125 250 125 250 125 292 c 1,18,19
 125 292 125 292 167 292 c 1,20,21
 167 292 167 292 167 333 c 1,22,23
 167 333 167 333 208 333 c 1,24,25
 208 333 208 333 208 375 c 1,26,27
 208 375 208 375 125 375 c 1,28,29
 125 375 125 375 125 333 c 1,30,31
 125 333 125 333 0 333 c 1,32,33
 0 333 0 333 0 458 c 1,34,35
 0 458 0 458 42 458 c 1,36,37
 42 458 42 458 42 500 c 1,38,39
 42 500 42 500 375 500 c 1,40,41
 375 500 375 500 375 458 c 1,42,43
 375 458 375 458 417 458 c 1,44,45
 417 458 417 458 417 333 c 1,46,47
 417 333 417 333 375 333 c 1,48,49
 375 333 375 333 375 292 c 1,50,51
 375 292 375 292 333 292 c 1,52,53
 333 292 333 292 333 250 c 1,54,55
 333 250 333 250 292 250 c 1,56,57
 292 250 292 250 292 208 c 1,58,59
 292 208 292 208 250 208 c 1,60,61
 250 208 250 208 250 167 c 1,62,63
 250 167 250 167 208 167 c 1,64,65
 208 167 208 167 208 125 c 1,66,67
 208 125 208 125 292 125 c 1,68,69
 292 125 292 125 292 167 c 1,70,71
 292 167 292 167 417 167 c 1,72,73
 417 167 417 167 417 42 c 1,74,75
 417 42 417 42 375 42 c 1,76,77
 375 42 375 42 375 0 c 1,78,79
 375 0 375 0 42 0 c 1,0,1
EndSplineSet
Validated: 1
EndChar

StartChar: sterling
Encoding: 163 163 95
Width: 550
GlyphClass: 1
Flags: W
LayerCount: 2
Fore
SplineSet
333 125 m 1,0,1
 333 139 333 139 333 166.5 c 128,-1,2
 333 194 333 194 333 208 c 1,3,-1
 500 208 l 1,4,5
 500 208 500 208 500 42 c 1,6,7
 500 42 500 42 458 42 c 1,8,9
 458 42 458 42 458 0 c 1,10,11
 458 0 458 0 0 0 c 1,12,13
 0 0 0 0 0 125 c 1,14,15
 0 125 0 125 42 125 c 1,16,17
 42 125 42 125 42 333 c 1,18,19
 42 333 42 333 0 333 c 1,20,21
 0 333 0 333 0 417 c 1,22,23
 0 417 0 417 42 417 c 1,24,25
 42 417 42 417 42 583 c 1,26,27
 42 583 42 583 83 583 c 1,28,29
 83 583 83 583 83 625 c 1,30,31
 83 625 83 625 125 625 c 1,32,33
 125 625 125 625 125 667 c 1,34,35
 125 667 125 667 417 667 c 1,36,37
 417 667 417 667 417 625 c 1,38,39
 417 625 417 625 458 625 c 1,40,41
 458 625 458 625 458 500 c 1,42,43
 458 500 458 500 292 500 c 1,44,45
 292 500 292 500 292 583 c 1,46,47
 292 583 292 583 250 583 c 1,48,49
 250 583 250 583 250 542 c 1,50,51
 250 542 250 542 208 542 c 1,52,53
 208 542 208 542 208 417 c 1,54,55
 208 417 208 417 375 417 c 1,56,57
 375 417 375 417 375 333 c 1,58,59
 375 333 375 333 208 333 c 1,60,61
 208 333 208 333 208 125 c 1,62,63
 208 125 208 125 333 125 c 1,0,1
EndSplineSet
Validated: 1
EndChar

StartChar: quotedblleft
Encoding: 8220 8220 96
Width: 425
GlyphClass: 1
Flags: W
LayerCount: 2
Fore
SplineSet
92 758 m 1,0,1
 85 758 85 758 71 758 c 128,-1,2
 57 758 57 758 50 758 c 1,3,-1
 50 550 l 1,4,5
 50 550 50 550 133 550 c 1,6,7
 133 550 133 550 133 633 c 1,8,9
 133 633 133 633 217 633 c 1,10,11
 217 633 217 633 217 758 c 1,12,13
 217 758 217 758 175 758 c 1,14,15
 175 758 175 758 175 800 c 1,16,17
 175 800 175 800 92 800 c 1,18,19
 92 800 92 800 92 758 c 1,0,1
300 800 m 1,20,21
 300 793 300 793 300 779 c 128,-1,22
 300 765 300 765 300 758 c 1,23,-1
 258 758 l 1,24,25
 258 758 258 758 258 550 c 1,26,27
 258 550 258 550 342 550 c 1,28,29
 342 550 342 550 342 633 c 1,30,31
 342 633 342 633 425 633 c 1,32,33
 425 633 425 633 425 758 c 1,34,35
 425 758 425 758 383 758 c 1,36,37
 383 758 383 758 383 800 c 1,38,39
 383 800 383 800 300 800 c 1,20,21
EndSplineSet
Validated: 9
EndChar

StartChar: quotedblright
Encoding: 8221 8221 97
Width: 425
GlyphClass: 1
Flags: W
LayerCount: 2
Fore
SplineSet
333 758 m 1,0,1
 340 758 340 758 354 758 c 128,-1,2
 368 758 368 758 375 758 c 1,3,-1
 375 550 l 1,4,5
 375 550 375 550 292 550 c 1,6,7
 292 550 292 550 292 633 c 1,8,9
 292 633 292 633 208 633 c 1,10,11
 208 633 208 633 208 758 c 1,12,13
 208 758 208 758 250 758 c 1,14,15
 250 758 250 758 250 800 c 1,16,17
 250 800 250 800 333 800 c 1,18,19
 333 800 333 800 333 758 c 1,0,1
125 800 m 1,20,21
 125 793 125 793 125 779 c 128,-1,22
 125 765 125 765 125 758 c 1,23,-1
 167 758 l 1,24,25
 167 758 167 758 167 550 c 1,26,27
 167 550 167 550 83 550 c 1,28,29
 83 550 83 550 83 633 c 1,30,31
 83 633 83 633 0 633 c 1,32,33
 0 633 0 633 0 758 c 1,34,35
 0 758 0 758 42 758 c 1,36,37
 42 758 42 758 42 800 c 1,38,39
 42 800 42 800 125 800 c 1,20,21
EndSplineSet
Validated: 1
EndChar

StartChar: adieresis
Encoding: 228 228 98
Width: 508
Flags: W
LayerCount: 2
Fore
SplineSet
62 542 m 5,0,1
 62 542 62 542 62 583 c 5,2,3
 62 583 62 583 21 583 c 5,4,5
 21 583 21 583 21 625 c 5,6,7
 21 625 21 625 62 625 c 5,8,9
 62 625 62 625 62 667 c 5,10,11
 62 667 62 667 146 667 c 5,12,13
 146 667 146 667 146 625 c 5,14,15
 146 625 146 625 187 625 c 5,16,17
 187 625 187 625 187 583 c 5,18,19
 187 583 187 583 146 583 c 5,20,21
 146 583 146 583 146 542 c 5,22,23
 146 542 146 542 62 542 c 5,0,1
310 542 m 5,24,25
 310 542 310 542 310 583 c 5,26,27
 310 583 310 583 269 583 c 5,28,29
 269 583 269 583 269 625 c 5,30,31
 269 625 269 625 310 625 c 5,32,33
 310 625 310 625 310 667 c 5,34,35
 310 667 310 667 394 667 c 5,36,37
 394 667 394 667 394 625 c 5,38,39
 394 625 394 625 435 625 c 5,40,41
 435 625 435 625 435 583 c 5,42,43
 435 583 435 583 394 583 c 5,44,45
 394 583 394 583 394 542 c 5,46,47
 394 542 394 542 310 542 c 5,24,25
250 125 m 1,48,49
 250 125 250 125 250 208 c 1,50,51
 250 208 250 208 167 208 c 1,52,53
 167 208 167 208 167 125 c 1,54,55
 167 125 167 125 250 125 c 1,48,49
417 83 m 1,56,57
 424 83 424 83 437.5 83 c 128,-1,58
 451 83 451 83 458 83 c 1,59,-1
 458 0 l 1,60,61
 458 0 458 0 250 0 c 1,62,63
 250 0 250 0 250 42 c 1,64,65
 250 42 250 42 208 42 c 1,66,67
 208 42 208 42 208 0 c 1,68,69
 208 0 208 0 42 0 c 1,70,71
 42 0 42 0 42 42 c 1,72,73
 42 42 42 42 0 42 c 1,74,75
 0 42 0 42 0 250 c 1,76,77
 0 250 0 250 42 250 c 1,78,79
 42 250 42 250 42 292 c 1,80,81
 42 292 42 292 250 292 c 1,82,83
 250 292 250 292 250 375 c 1,84,85
 250 375 250 375 167 375 c 1,86,87
 167 375 167 375 167 333 c 1,88,89
 167 333 167 333 42 333 c 1,90,91
 42 333 42 333 42 458 c 1,92,93
 42 458 42 458 83 458 c 1,94,95
 83 458 83 458 83 500 c 1,96,97
 83 500 83 500 375 500 c 1,98,99
 375 500 375 500 375 458 c 1,100,101
 375 458 375 458 417 458 c 1,102,103
 417 458 417 458 417 83 c 1,56,57
EndSplineSet
Validated: 1
EndChar

StartChar: edieresis
Encoding: 235 235 99
Width: 508
Flags: W
LayerCount: 2
Fore
SplineSet
167 375 m 1,0,1
 167 375 167 375 167 292 c 1,2,3
 167 292 167 292 250 292 c 1,4,5
 250 292 250 292 250 375 c 1,6,7
 250 375 250 375 167 375 c 1,0,1
375 208 m 1,8,9
 375 208 375 208 167 208 c 1,10,11
 167 208 167 208 167 125 c 1,12,13
 167 125 167 125 250 125 c 1,14,15
 250 125 250 125 250 167 c 1,16,17
 250 167 250 167 417 167 c 1,18,19
 417 167 417 167 417 42 c 1,20,21
 417 42 417 42 375 42 c 1,22,23
 375 42 375 42 375 0 c 1,24,25
 375 0 375 0 42 0 c 1,26,27
 42 0 42 0 42 42 c 1,28,29
 42 42 42 42 0 42 c 1,30,31
 0 42 0 42 0 417 c 1,32,33
 0 417 0 417 42 417 c 1,34,35
 42 417 42 417 42 458 c 1,36,37
 42 458 42 458 83 458 c 1,38,39
 83 458 83 458 83 500 c 1,40,41
 83 500 83 500 375 500 c 1,42,43
 375 500 375 500 375 458 c 1,44,45
 375 458 375 458 417 458 c 1,46,47
 417 458 417 458 417 250 c 1,48,49
 417 250 417 250 375 250 c 1,50,51
 375 250 375 250 375 208 c 1,8,9
62 542 m 5,52,53
 62 542 62 542 62 583 c 5,54,55
 62 583 62 583 21 583 c 5,56,57
 21 583 21 583 21 625 c 5,58,59
 21 625 21 625 62 625 c 5,60,61
 62 625 62 625 62 667 c 5,62,63
 62 667 62 667 146 667 c 5,64,65
 146 667 146 667 146 625 c 5,66,67
 146 625 146 625 187 625 c 5,68,69
 187 625 187 625 187 583 c 5,70,71
 187 583 187 583 146 583 c 5,72,73
 146 583 146 583 146 542 c 5,74,75
 146 542 146 542 62 542 c 5,52,53
310 542 m 5,76,77
 310 542 310 542 310 583 c 5,78,79
 310 583 310 583 269 583 c 5,80,81
 269 583 269 583 269 625 c 5,82,83
 269 625 269 625 310 625 c 5,84,85
 310 625 310 625 310 667 c 5,86,87
 310 667 310 667 394 667 c 5,88,89
 394 667 394 667 394 625 c 5,90,91
 394 625 394 625 435 625 c 5,92,93
 435 625 435 625 435 583 c 5,94,95
 435 583 435 583 394 583 c 5,96,97
 394 583 394 583 394 542 c 5,98,99
 394 542 394 542 310 542 c 5,76,77
EndSplineSet
Validated: 1
EndChar

StartChar: udieresis
Encoding: 252 252 100
Width: 508
Flags: W
LayerCount: 2
Fore
SplineSet
42 42 m 1,0,1
 42 104 42 104 42 229 c 128,-1,2
 42 354 42 354 42 417 c 1,3,-1
 0 417 l 1,4,5
 0 417 0 417 0 500 c 1,6,7
 0 500 0 500 208 500 c 1,8,9
 208 500 208 500 208 167 c 1,10,11
 208 167 208 167 250 167 c 1,12,13
 250 167 250 167 250 208 c 1,14,15
 250 208 250 208 292 208 c 1,16,17
 292 208 292 208 292 500 c 1,18,19
 292 500 292 500 458 500 c 1,20,21
 458 500 458 500 458 83 c 1,22,23
 458 83 458 83 500 83 c 1,24,25
 500 83 500 83 500 0 c 1,26,27
 500 0 500 0 292 0 c 1,28,29
 292 0 292 0 292 83 c 1,30,31
 292 83 292 83 250 83 c 1,32,33
 250 83 250 83 250 42 c 1,34,35
 250 42 250 42 208 42 c 1,36,37
 208 42 208 42 208 0 c 1,38,39
 208 0 208 0 83 0 c 1,40,41
 83 0 83 0 83 42 c 1,42,43
 83 42 83 42 42 42 c 1,0,1
62 542 m 1,44,45
 62 542 62 542 62 583 c 1,46,47
 62 583 62 583 21 583 c 1,48,49
 21 583 21 583 21 625 c 1,50,51
 21 625 21 625 62 625 c 1,52,53
 62 625 62 625 62 667 c 1,54,55
 62 667 62 667 146 667 c 1,56,57
 146 667 146 667 146 625 c 1,58,59
 146 625 146 625 187 625 c 1,60,61
 187 625 187 625 187 583 c 1,62,63
 187 583 187 583 146 583 c 1,64,65
 146 583 146 583 146 542 c 1,66,67
 146 542 146 542 62 542 c 1,44,45
351 542 m 1,68,69
 351 542 351 542 351 583 c 1,70,71
 351 583 351 583 310 583 c 1,72,73
 310 583 310 583 310 625 c 1,74,75
 310 625 310 625 351 625 c 1,76,77
 351 625 351 625 351 667 c 1,78,79
 351 667 351 667 435 667 c 1,80,81
 435 667 435 667 435 625 c 1,82,83
 435 625 435 625 476 625 c 1,84,85
 476 625 476 625 476 583 c 1,86,87
 476 583 476 583 435 583 c 1,88,89
 435 583 435 583 435 542 c 1,90,91
 435 542 435 542 351 542 c 1,68,69
EndSplineSet
Validated: 1
EndChar

StartChar: odieresis
Encoding: 246 246 101
Width: 508
Flags: W
LayerCount: 2
Fore
SplineSet
250 167 m 1,0,1
 250 167 250 167 250 375 c 1,2,3
 250 375 250 375 208 375 c 1,4,5
 208 375 208 375 208 333 c 1,6,7
 208 333 208 333 167 333 c 1,8,9
 167 333 167 333 167 125 c 1,10,11
 167 125 167 125 208 125 c 1,12,13
 208 125 208 125 208 167 c 1,14,15
 208 167 208 167 250 167 c 1,0,1
375 458 m 1,16,17
 375 458 375 458 417 458 c 1,18,19
 417 458 417 458 417 83 c 1,20,21
 417 83 417 83 375 83 c 1,22,23
 375 83 375 83 375 42 c 1,24,25
 375 42 375 42 333 42 c 1,26,27
 333 42 333 42 333 0 c 1,28,29
 333 0 333 0 42 0 c 1,30,31
 42 0 42 0 42 42 c 1,32,33
 42 42 42 42 0 42 c 1,34,35
 0 42 0 42 0 417 c 1,36,37
 0 417 0 417 42 417 c 1,38,39
 42 417 42 417 42 458 c 1,40,41
 42 458 42 458 83 458 c 1,42,43
 83 458 83 458 83 500 c 1,44,45
 83 500 83 500 375 500 c 1,46,47
 375 500 375 500 375 458 c 1,16,17
39 542 m 1,48,49
 39 542 39 542 39 583 c 1,50,51
 39 583 39 583 -2 583 c 1,52,53
 -2 583 -2 583 -2 625 c 1,54,55
 -2 625 -2 625 39 625 c 1,56,57
 39 625 39 625 39 667 c 1,58,59
 39 667 39 667 123 667 c 1,60,61
 123 667 123 667 123 625 c 1,62,63
 123 625 123 625 164 625 c 1,64,65
 164 625 164 625 164 583 c 1,66,67
 164 583 164 583 123 583 c 1,68,69
 123 583 123 583 123 542 c 1,70,71
 123 542 123 542 39 542 c 1,48,49
310 542 m 1,72,73
 310 542 310 542 310 583 c 1,74,75
 310 583 310 583 269 583 c 1,76,77
 269 583 269 583 269 625 c 1,78,79
 269 625 269 625 310 625 c 1,80,81
 310 625 310 625 310 667 c 1,82,83
 310 667 310 667 394 667 c 1,84,85
 394 667 394 667 394 625 c 1,86,87
 394 625 394 625 435 625 c 1,88,89
 435 625 435 625 435 583 c 1,90,91
 435 583 435 583 394 583 c 1,92,93
 394 583 394 583 394 542 c 1,94,95
 394 542 394 542 310 542 c 1,72,73
EndSplineSet
Validated: 1
EndChar
